{
	"asset":{
		"generator":"Khronos glTF Blender I/O v3.6.27",
		"version":"2.0"
	},
	"scene":0,
	"scenes":[
		{
			"name":"Scene",
			"nodes":[
				0
			]
		}
	],
	"nodes":[
		{
			"mesh":0,
			"name":"Character_2nd"
		}
	],
	"materials":[
		{
			"doubleSided":true,
			"name":"Character_2nd_Baked",
			"pbrMetallicRoughness":{
				"baseColorTexture":{
					"index":0
				},
				"metallicFactor":0,
				"roughnessFactor":0.5
			}
		}
	],
	"meshes":[
		{
			"extras":{
				"targetNames":[
					"Talk",
					"Blinks",
					"Flapping Wings"
				]
			},
			"name":"Cube.014",
			"primitives":[
				{
					"attributes":{
						"POSITION":0,
						"NORMAL":1,
						"TEXCOORD_0":2
					},
					"indices":3,
					"material":0,
					"targets":[
						{
							"POSITION":4,
							"NORMAL":5
						},
						{
							"POSITION":6,
							"NORMAL":7
						},
						{
							"POSITION":8,
							"NORMAL":9
						}
					]
				}
			],
			"weights":[
				0,
				0,
				0
			]
		}
	],
	"textures":[
		{
			"sampler":0,
			"source":0
		}
	],
	"images":[
		{
			"bufferView":4,
			"mimeType":"image/png",
			"name":"Character_2nd_Bake1_PBR_Diffuse"
		}
	],
	"accessors":[
		{
			"bufferView":0,
			"componentType":5126,
			"count":14707,
			"max":[
				1.7755519151687622,
				3.9551188945770264,
				1.5628387928009033
			],
			"min":[
				-1.7755520343780518,
				0.003961177077144384,
				-1.3481868505477905
			],
			"type":"VEC3"
		},
		{
			"bufferView":1,
			"componentType":5126,
			"count":14707,
			"type":"VEC3"
		},
		{
			"bufferView":2,
			"componentType":5126,
			"count":14707,
			"type":"VEC2"
		},
		{
			"bufferView":3,
			"componentType":5123,
			"count":67068,
			"type":"SCALAR"
		},
		{
			"bufferView":5,
			"componentType":5126,
			"count":14707,
			"max":[
				0.05982697010040283,
				0.2940807342529297,
				0.11833930015563965
			],
			"min":[
				-0.05982702970504761,
				-0.0009770393371582031,
				-0.0002633333206176758
			],
			"type":"VEC3"
		},
		{
			"bufferView":6,
			"componentType":5126,
			"count":14707,
			"type":"VEC3"
		},
		{
			"bufferView":7,
			"componentType":5126,
			"count":14707,
			"max":[
				0.014118313789367676,
				0.12257099151611328,
				0.06792759895324707
			],
			"min":[
				-0.014118373394012451,
				-0.12256503105163574,
				-0.06792688369750977
			],
			"type":"VEC3"
		},
		{
			"bufferView":8,
			"componentType":5126,
			"count":14707,
			"type":"VEC3"
		},
		{
			"bufferView":9,
			"componentType":5126,
			"count":14707,
			"max":[
				0.26006650924682617,
				0.16409063339233398,
				2.384185791015625e-07
			],
			"min":[
				-0.2600663900375366,
				-0.1666198968887329,
				-1.1920928955078125e-07
			],
			"type":"VEC3"
		},
		{
			"bufferView":10,
			"componentType":5126,
			"count":14707,
			"type":"VEC3"
		}
	],
	"bufferViews":[
		{
			"buffer":0,
			"byteLength":176484,
			"byteOffset":0,
			"target":34962
		},
		{
			"buffer":0,
			"byteLength":176484,
			"byteOffset":176484,
			"target":34962
		},
		{
			"buffer":0,
			"byteLength":117656,
			"byteOffset":352968,
			"target":34962
		},
		{
			"buffer":0,
			"byteLength":134136,
			"byteOffset":470624,
			"target":34963
		},
		{
			"buffer":0,
			"byteLength":387529,
			"byteOffset":604760
		},
		{
			"buffer":0,
			"byteLength":176484,
			"byteOffset":992292,
			"target":34962
		},
		{
			"buffer":0,
			"byteLength":176484,
			"byteOffset":1168776,
			"target":34962
		},
		{
			"buffer":0,
			"byteLength":176484,
			"byteOffset":1345260,
			"target":34962
		},
		{
			"buffer":0,
			"byteLength":176484,
			"byteOffset":1521744,
			"target":34962
		},
		{
			"buffer":0,
			"byteLength":176484,
			"byteOffset":1698228,
			"target":34962
		},
		{
			"buffer":0,
			"byteLength":176484,
			"byteOffset":1874712,
			"target":34962
		}
	],
	"samplers":[
		{
			"magFilter":9729,
			"minFilter":9987
		}
	],
	"buffers":[
		{
			"byteLength":2051196,
			"uri":"data:application/octet-stream;base64,"
		}
	]
}
