{
	"asset":{
		"generator":"Khronos glTF Blender I/O v3.6.27",
		"version":"2.0"
	},
	"scene":0,
	"scenes":[
		{
			"name":"Scene",
			"nodes":[
				0
			]
		}
	],
	"nodes":[
		{
			"mesh":0,
			"name":"3rd_Character"
		}
	],
	"materials":[
		{
			"doubleSided":true,
			"name":"material_atlas_00001_1",
			"pbrMetallicRoughness":{
				"baseColorTexture":{
					"index":0
				},
				"metallicFactor":0,
				"roughnessFactor":0.5
			}
		}
	],
	"meshes":[
		{
			"extras":{
				"targetNames":[
					"Hide_Mug",
					"Default_Pose",
					"Blinks",
					"Happy_Talk",
					"Angry_Talk"
				]
			},
			"name":"Cylinder",
			"primitives":[
				{
					"attributes":{
						"POSITION":0,
						"NORMAL":1,
						"TEXCOORD_0":2,
						"TEXCOORD_1":3
					},
					"indices":4,
					"material":0,
					"targets":[
						{
							"POSITION":5,
							"NORMAL":6
						},
						{
							"POSITION":7,
							"NORMAL":8
						},
						{
							"POSITION":9,
							"NORMAL":10
						},
						{
							"POSITION":11,
							"NORMAL":12
						},
						{
							"POSITION":13,
							"NORMAL":14
						}
					]
				}
			],
			"weights":[
				0,
				0,
				0,
				0,
				0
			]
		}
	],
	"textures":[
		{
			"sampler":0,
			"source":0
		}
	],
	"images":[
		{
			"bufferView":5,
			"mimeType":"image/png",
			"name":"Atlas_00003"
		}
	],
	"accessors":[
		{
			"bufferView":0,
			"componentType":5126,
			"count":15696,
			"max":[
				1.1846580505371094,
				3.1973791122436523,
				0.7488876581192017
			],
			"min":[
				-1.1846579313278198,
				0.0008132457733154297,
				-0.8307880759239197
			],
			"type":"VEC3"
		},
		{
			"bufferView":1,
			"componentType":5126,
			"count":15696,
			"type":"VEC3"
		},
		{
			"bufferView":2,
			"componentType":5126,
			"count":15696,
			"type":"VEC2"
		},
		{
			"bufferView":3,
			"componentType":5126,
			"count":15696,
			"type":"VEC2"
		},
		{
			"bufferView":4,
			"componentType":5123,
			"count":64296,
			"type":"SCALAR"
		},
		{
			"bufferView":6,
			"componentType":5126,
			"count":15696,
			"max":[
				1.0220750570297241,
				1.1920928955078125e-07,
				1.1920928955078125e-07
			],
			"min":[
				-4.76837158203125e-07,
				-0.27688324451446533,
				-0.06330852210521698
			],
			"type":"VEC3"
		},
		{
			"bufferView":7,
			"componentType":5126,
			"count":15696,
			"type":"VEC3"
		},
		{
			"bufferView":8,
			"componentType":5126,
			"count":15696,
			"max":[
				0.7123920917510986,
				0.031113147735595703,
				0.4652141034603119
			],
			"min":[
				-0.8168894052505493,
				-0.3422417640686035,
				-0.0716794952750206
			],
			"type":"VEC3"
		},
		{
			"bufferView":9,
			"componentType":5126,
			"count":15696,
			"type":"VEC3"
		},
		{
			"bufferView":10,
			"componentType":5126,
			"count":15696,
			"max":[
				0.021455883979797363,
				0.0726926326751709,
				0.037339210510253906
			],
			"min":[
				-0.06868714094161987,
				-0.12349843978881836,
				-0.06255751848220825
			],
			"type":"VEC3"
		},
		{
			"bufferView":11,
			"componentType":5126,
			"count":15696,
			"type":"VEC3"
		},
		{
			"bufferView":12,
			"componentType":5126,
			"count":15696,
			"max":[
				0.02258811891078949,
				0.00525510311126709,
				0.0008767843246459961
			],
			"min":[
				-0.02258811891078949,
				-0.06064784526824951,
				-0.010119259357452393
			],
			"type":"VEC3"
		},
		{
			"bufferView":13,
			"componentType":5126,
			"count":15696,
			"type":"VEC3"
		},
		{
			"bufferView":14,
			"componentType":5126,
			"count":15696,
			"max":[
				0.07315430045127869,
				0.053907155990600586,
				0.008994519710540771
			],
			"min":[
				-0.07315431535243988,
				-0.062398433685302734,
				-0.010411381721496582
			],
			"type":"VEC3"
		},
		{
			"bufferView":15,
			"componentType":5126,
			"count":15696,
			"type":"VEC3"
		}
	],
	"bufferViews":[
		{
			"buffer":0,
			"byteLength":188352,
			"byteOffset":0,
			"target":34962
		},
		{
			"buffer":0,
			"byteLength":188352,
			"byteOffset":188352,
			"target":34962
		},
		{
			"buffer":0,
			"byteLength":125568,
			"byteOffset":376704,
			"target":34962
		},
		{
			"buffer":0,
			"byteLength":125568,
			"byteOffset":502272,
			"target":34962
		},
		{
			"buffer":0,
			"byteLength":128592,
			"byteOffset":627840,
			"target":34963
		},
		{
			"buffer":0,
			"byteLength":288621,
			"byteOffset":756432
		},
		{
			"buffer":0,
			"byteLength":188352,
			"byteOffset":1045056,
			"target":34962
		},
		{
			"buffer":0,
			"byteLength":188352,
			"byteOffset":1233408,
			"target":34962
		},
		{
			"buffer":0,
			"byteLength":188352,
			"byteOffset":1421760,
			"target":34962
		},
		{
			"buffer":0,
			"byteLength":188352,
			"byteOffset":1610112,
			"target":34962
		},
		{
			"buffer":0,
			"byteLength":188352,
			"byteOffset":1798464,
			"target":34962
		},
		{
			"buffer":0,
			"byteLength":188352,
			"byteOffset":1986816,
			"target":34962
		},
		{
			"buffer":0,
			"byteLength":188352,
			"byteOffset":2175168,
			"target":34962
		},
		{
			"buffer":0,
			"byteLength":188352,
			"byteOffset":2363520,
			"target":34962
		},
		{
			"buffer":0,
			"byteLength":188352,
			"byteOffset":2551872,
			"target":34962
		},
		{
			"buffer":0,
			"byteLength":188352,
			"byteOffset":2740224,
			"target":34962
		}
	],
	"samplers":[
		{
			"magFilter":9729,
			"minFilter":9987
		}
	],
	"buffers":[
		{
			"byteLength":2928576,
			"uri":"data:application/octet-stream;base64,"
		}
	]
}
