<svg width="45" height="42" viewBox="0 0 45 42" fill="none" xmlns="http://www.w3.org/2000/svg">
<path d="M23.2248 15.4723L30.6041 10.1862V40.6992H23.2248V37.3241C21.0129 40.108 17.9048 41.5 13.9005 41.5C10.0869 41.5 6.80725 40.0508 4.06146 37.1525C1.35381 34.216 0 30.6313 0 26.3982C0 22.1651 1.35381 18.5994 4.06146 15.7011C6.80725 12.7646 10.0869 11.2964 13.9005 11.2964C17.9048 11.2964 21.0129 12.6883 23.2248 15.4723ZM9.61022 32.233C11.0975 33.7203 12.9853 34.4639 15.2734 34.4639C17.5616 34.4639 19.4493 33.7203 20.9366 32.233C22.462 30.7075 23.2248 28.7626 23.2248 26.3982C23.2248 24.0338 22.462 22.1079 20.9366 20.6206C19.4493 19.0952 17.5616 18.3324 15.2734 18.3324C12.9853 18.3324 11.0975 19.0952 9.61022 20.6206C8.12292 22.1079 7.3793 24.0338 7.3793 26.3982C7.3793 28.7626 8.12292 30.7075 9.61022 32.233Z" fill="#6D67E4"/>
<path d="M37.4147 40.6992V16.0942L44.794 10.7974V40.6992H37.4147Z" fill="#6D67E4"/>
<path d="M37.4148 5.29684L44.7942 0V6.82478L37.4148 12.1216V5.29684Z" fill="#6D67E4"/>
</svg>
