<svg xmlns="http://www.w3.org/2000/svg" width="19" height="18" viewBox="0 0 19 18" fill="none">
  <path d="M6.32903 1.82935L7.13678 1.57135C7.89278 1.32985 8.70128 1.7206 9.02528 2.4841L9.67028 4.0051C9.95153 4.66735 9.79553 5.4466 9.28478 5.9311L7.86503 7.2796C7.95253 8.0866 8.22353 8.88085 8.67803 9.66235C9.11023 10.4183 9.68936 11.08 10.3813 11.6086L12.0883 11.0386C12.7348 10.8234 13.439 11.0716 13.8358 11.6544L14.7598 13.0119C15.2218 13.6899 15.1385 14.6244 14.5663 15.1989L13.9528 15.8146C13.3423 16.4274 12.4708 16.6501 11.6638 16.3981C9.75978 15.8041 8.00903 14.0409 6.41153 11.1084C4.81203 8.17085 4.24753 5.67885 4.71803 3.63235C4.91603 2.77135 5.52953 2.0851 6.33053 1.82935" fill="#6D67E4"/>
</svg>