<svg xmlns="http://www.w3.org/2000/svg" width="16" height="18" viewBox="0 0 16 18" fill="none">
  <path fill-rule="evenodd" clip-rule="evenodd" d="M8.20546 17.3333C7.07629 17.3333 5.97546 17.3208 4.88629 17.2983C3.49296 17.2708 2.52879 16.3675 2.37129 14.9408C2.10879 12.5742 1.65962 6.99585 1.65546 6.94001C1.62712 6.59585 1.88379 6.29418 2.22796 6.26668C2.56712 6.25751 2.87379 6.49585 2.90129 6.83918C2.90546 6.89585 3.35379 12.455 3.61379 14.8033C3.70296 15.6142 4.14046 16.0325 4.91212 16.0483C6.99546 16.0925 9.12129 16.095 11.413 16.0533C12.233 16.0375 12.6763 15.6275 12.768 14.7975C13.0263 12.4692 13.4763 6.89585 13.4813 6.83918C13.5088 6.49585 13.813 6.25585 14.1538 6.26668C14.498 6.29501 14.7546 6.59585 14.7271 6.94001C14.7221 6.99668 14.2705 12.5892 14.0105 14.935C13.8488 16.3908 12.8871 17.2767 11.4355 17.3033C10.3246 17.3225 9.25296 17.3333 8.20546 17.3333" fill="#FF3B30"/>
  <path fill-rule="evenodd" clip-rule="evenodd" d="M15.2567 4.82443H1.125C0.78 4.82443 0.5 4.54443 0.5 4.19943C0.5 3.85443 0.78 3.57443 1.125 3.57443H15.2567C15.6017 3.57443 15.8817 3.85443 15.8817 4.19943C15.8817 4.54443 15.6017 4.82443 15.2567 4.82443" fill="#FF3B30"/>
  <path fill-rule="evenodd" clip-rule="evenodd" d="M12.5337 4.82443C11.5854 4.82443 10.7621 4.1486 10.5754 3.2186L10.3729 2.20526C10.3304 2.0511 10.1546 1.91693 9.95457 1.91693H6.42707C6.22707 1.91693 6.05123 2.0511 6.0004 2.2436L5.80623 3.2186C5.6204 4.1486 4.79623 4.82443 3.8479 4.82443C3.5029 4.82443 3.2229 4.54443 3.2229 4.19943C3.2229 3.85443 3.5029 3.57443 3.8479 3.57443C4.2029 3.57443 4.51123 3.3211 4.58123 2.97276L4.78373 1.95943C4.98957 1.18276 5.66207 0.666931 6.42707 0.666931H9.95457C10.7196 0.666931 11.3921 1.18276 11.5896 1.92193L11.8012 2.97276C11.8704 3.3211 12.1787 3.57443 12.5337 3.57443C12.8787 3.57443 13.1587 3.85443 13.1587 4.19943C13.1587 4.54443 12.8787 4.82443 12.5337 4.82443" fill="#FF3B30"/>
</svg>