<svg xmlns="http://www.w3.org/2000/svg" width="21" height="20" viewBox="0 0 21 20" fill="none">
  <path d="M15.1334 14.9748H5.86675C2.55008 14.9748 1.54175 13.9665 1.54175 10.6498V5.3665C1.54175 2.04984 2.55008 1.0415 5.86675 1.0415H15.1251C18.4417 1.0415 19.4501 2.04984 19.4501 5.3665V10.6415C19.4584 13.9665 18.4501 14.9748 15.1334 14.9748ZM5.86675 2.2915C3.25008 2.2915 2.79175 2.74984 2.79175 5.3665V10.6415C2.79175 13.2582 3.25008 13.7165 5.86675 13.7165H15.1251C17.7417 13.7165 18.2001 13.2582 18.2001 10.6415V5.3665C18.2001 2.74984 17.7417 2.2915 15.1251 2.2915H5.86675Z" fill="white"/>
  <path d="M10.5 18.9584C10.1583 18.9584 9.875 18.6751 9.875 18.3334V14.3501C9.875 14.0084 10.1583 13.7251 10.5 13.7251C10.8417 13.7251 11.125 14.0084 11.125 14.3501V18.3334C11.125 18.6751 10.8417 18.9584 10.5 18.9584Z" fill="white"/>
  <path d="M18.8334 11.4585H2.16675C1.82508 11.4585 1.54175 11.1752 1.54175 10.8335C1.54175 10.4918 1.82508 10.2085 2.16675 10.2085H18.8334C19.1751 10.2085 19.4584 10.4918 19.4584 10.8335C19.4584 11.1752 19.1751 11.4585 18.8334 11.4585Z" fill="white"/>
  <path d="M14.25 18.9585H6.75C6.40833 18.9585 6.125 18.6752 6.125 18.3335C6.125 17.9918 6.40833 17.7085 6.75 17.7085H14.25C14.5917 17.7085 14.875 17.9918 14.875 18.3335C14.875 18.6752 14.5917 18.9585 14.25 18.9585Z" fill="white"/>
</svg>