<svg xmlns="http://www.w3.org/2000/svg" width="18" height="18" viewBox="0 0 18 18" fill="none">
  <path d="M7.99988 9.00016C8.24482 9.00019 8.48122 9.09012 8.66426 9.25287C8.84729 9.41563 8.96423 9.63991 8.99288 9.88316L8.99988 10.0002V15.0002C8.9996 15.255 8.90201 15.5002 8.72704 15.6855C8.55207 15.8709 8.31293 15.9824 8.05849 15.9973C7.80405 16.0123 7.55351 15.9295 7.35805 15.7659C7.1626 15.6023 7.03699 15.3703 7.00688 15.1172L6.99988 15.0002V12.4142L1.70688 17.7072C1.52693 17.8865 1.28545 17.9906 1.0315 17.9984C0.777551 18.0061 0.530171 17.9169 0.339606 17.7489C0.14904 17.5809 0.0295792 17.3466 0.00548562 17.0937C-0.018608 16.8408 0.0544727 16.5882 0.209884 16.3872L0.292884 16.2932L5.58589 11.0002H2.99988C2.745 10.9999 2.49985 10.9023 2.31452 10.7273C2.12918 10.5523 2.01765 10.3132 2.00271 10.0588C1.98778 9.80432 2.07056 9.55378 2.23415 9.35833C2.39774 9.16287 2.62979 9.03726 2.88288 9.00716L2.99988 9.00016H7.99988ZM16.2929 0.293159C16.4728 0.113811 16.7143 0.00968578 16.9683 0.00193119C17.2222 -0.00582341 17.4696 0.0833745 17.6602 0.251408C17.8507 0.419442 17.9702 0.653711 17.9943 0.906634C18.0184 1.15956 17.9453 1.41217 17.7899 1.61316L17.7069 1.70716L12.4139 7.00016H14.9999C15.2548 7.00044 15.4999 7.09804 15.6853 7.27301C15.8706 7.44798 15.9821 7.68711 15.9971 7.94155C16.012 8.196 15.9292 8.44654 15.7656 8.64199C15.602 8.83744 15.37 8.96306 15.1169 8.99316L14.9999 9.00016H9.99988C9.75495 9.00013 9.51855 8.9102 9.33551 8.74744C9.15248 8.58469 9.03554 8.36041 9.00688 8.11716L8.99988 8.00016V3.00016C9.00017 2.74528 9.09776 2.50013 9.27273 2.31479C9.4477 2.12945 9.68684 2.01792 9.94128 2.00299C10.1957 1.98805 10.4463 2.07083 10.6417 2.23442C10.8372 2.39801 10.9628 2.63006 10.9929 2.88316L10.9999 3.00016V5.58616L16.2929 0.293159Z" fill="#8F93A5"/>
</svg>