<svg xmlns="http://www.w3.org/2000/svg" width="20" height="20" viewBox="0 0 20 20" fill="none">
  <path d="M12.4999 18.9582H7.49992C3.82492 18.9582 2.70825 17.8415 2.70825 14.1665V5.83317C2.70825 2.15817 3.82492 1.0415 7.49992 1.0415H12.4999C16.1749 1.0415 17.2916 2.15817 17.2916 5.83317V14.1665C17.2916 17.8415 16.1749 18.9582 12.4999 18.9582ZM7.49992 2.2915C4.51659 2.2915 3.95825 2.85817 3.95825 5.83317V14.1665C3.95825 17.1415 4.51659 17.7082 7.49992 17.7082H12.4999C15.4833 17.7082 16.0416 17.1415 16.0416 14.1665V5.83317C16.0416 2.85817 15.4833 2.2915 12.4999 2.2915H7.49992Z" fill="#8F93A5"/>
  <path d="M11.6666 5.2085H8.33325C7.99159 5.2085 7.70825 4.92516 7.70825 4.5835C7.70825 4.24183 7.99159 3.9585 8.33325 3.9585H11.6666C12.0083 3.9585 12.2916 4.24183 12.2916 4.5835C12.2916 4.92516 12.0083 5.2085 11.6666 5.2085Z" fill="#8F93A5"/>
  <path d="M9.99992 16.5501C8.94159 16.5501 8.08325 15.6918 8.08325 14.6335C8.08325 13.5751 8.94159 12.7168 9.99992 12.7168C11.0583 12.7168 11.9166 13.5751 11.9166 14.6335C11.9166 15.6918 11.0583 16.5501 9.99992 16.5501ZM9.99992 13.9585C9.63325 13.9585 9.33325 14.2585 9.33325 14.6251C9.33325 14.9918 9.63325 15.2918 9.99992 15.2918C10.3666 15.2918 10.6666 14.9918 10.6666 14.6251C10.6666 14.2585 10.3666 13.9585 9.99992 13.9585Z" fill="#8F93A5"/>
</svg>