<svg xmlns="http://www.w3.org/2000/svg" width="25" height="28" viewBox="0 0 25 28" fill="none">
  <g clip-path="url(#clip0_2468_15960)">
    <path d="M11.3 0.999999C11.5 0.999999 11.6 1.1 11.8 1.2C10.6 1.7 9.4 3 8.8 5.8L6.6 6.4C7.3 4.4 8.7 0.999999 11.3 0.999999ZM12.4 2C12.6 2.6 12.8 3.3 12.8 4.4C12.8 4.5 12.8 4.5 12.8 4.6L9.9 5.4C10.5 3.3 11.5 2.4 12.4 2ZM15 3.8L13.7 4.2C13.7 4.1 13.7 4 13.7 3.9C13.7 3 13.6 2.3 13.4 1.7C14.1 1.9 14.7 2.8 15 3.8ZM21.5 5.4C21.5 5.3 21.4 5.2 21.3 5.2C21.1 5.2 19 5 19 5C19 5 17.5 3.5 17.3 3.4C17.1 3.2 16.8 3.3 16.7 3.3C16.7 3.3 16.4 3.4 15.9 3.6C15.4 2.2 14.5 0.899999 13 0.899999H12.9C12.5 0.299999 11.9 0.0999993 11.4 0.0999993C7.8 -6.63102e-07 6.1 4.5 5.5 6.8C4.7 7 3.9 7.3 3 7.6C2.2 7.8 2.2 7.9 2.1 8.6C2 9.1 0 24.9 0 24.9L15.9 27.9L24.5 26C24.5 26 21.5 5.6 21.5 5.4Z" fill="#8DB849"/>
    <path d="M21.1999 5.2C21.0999 5.2 18.9999 5 18.9999 5C18.9999 5 17.4999 3.5 17.2999 3.4C17.1999 3.3 17.1999 3.3 17.0999 3.3L15.8999 27.9L24.4999 26C24.4999 26 21.4999 5.6 21.4999 5.4C21.4999 5.3 21.2999 5.2 21.1999 5.2Z" fill="#5A863E"/>
    <path d="M13 10L11.9 13.2C11.9 13.2 11 12.7 9.79995 12.7C8.09995 12.7 7.99995 13.7 7.99995 14C7.99995 15.4 11.8 16 11.8 19.4C11.8 22.1 10.1 23.8 7.79995 23.8C5.09995 23.8 3.69995 22.1 3.69995 22.1L4.39995 19.7C4.39995 19.7 5.79995 20.9 6.99995 20.9C7.79995 20.9 8.09995 20.3 8.09995 19.8C8.09995 17.9 4.99995 17.8 4.99995 14.7C4.99995 12.1 6.89995 9.6 10.6 9.6C12.3 9.5 13 10 13 10Z" fill="#FFFFFE"/>
  </g>
  <defs>
    <clipPath id="clip0_2468_15960">
      <rect width="25" height="28" fill="white"/>
    </clipPath>
  </defs>
</svg>