<svg xmlns="http://www.w3.org/2000/svg" width="64" height="113" viewBox="0 0 64 113" fill="none">
  <path d="M5.95015 3.96508C0.86349 11.9643 1.19626 23.0567 6.75514 30.7358C10.46 35.8573 16.0157 39.2928 20.4273 43.8122C24.8389 48.3315 28.192 55.0028 25.8626 60.8786C23.492 66.859 16.5482 69.2898 11.3506 73.0803C5.61593 77.257 1.72285 83.4934 0.488929 90.4798C-0.744996 97.4661 0.776239 104.659 4.73316 110.547H58.7437C58.7437 110.547 68.2324 92.4666 56.0339 78.6835C43.8355 64.9004 37.2846 64.6786 37.7346 55.6398C38.1847 46.6011 44.5105 43.6696 48.1266 40.2784C51.7428 36.8873 69.3607 28.9864 58.9687 3.96191L5.95015 3.96508Z" fill="#FAFAFA"/>
  <path d="M5.95101 3.96505H6.8796H9.61784H20.1588L58.9695 3.93652H59.0107V3.97455C59.8063 5.86934 60.4837 7.81159 61.0391 9.79014C61.6223 11.8617 62.0064 13.9841 62.1863 16.1287C62.3733 18.3703 62.2582 20.627 61.8441 22.838C61.3892 25.1299 60.565 27.3327 59.4037 29.3603C58.802 30.3945 58.1218 31.3809 57.3691 32.3109C56.6008 33.2534 55.7696 34.1428 54.8812 34.9731C53.9815 35.8185 53.039 36.6171 52.0574 37.3659C51.0749 38.1265 50.0481 38.8427 49.0466 39.6034C48.5458 39.9805 48.0958 40.4052 47.6077 40.8299C47.1197 41.2545 46.6348 41.6507 46.134 42.05C45.1357 42.8487 44.1279 43.6347 43.1771 44.5189C41.1927 46.2389 39.6678 48.426 38.7402 50.8828C38.2944 52.1428 38.0132 53.4552 37.9035 54.7873C37.8749 55.1042 37.8306 55.4528 37.8179 55.7888C37.8052 56.1247 37.7926 56.4606 37.8179 56.7966C37.8251 57.4711 37.893 58.1436 38.0207 58.8059C38.272 60.148 38.8199 61.417 39.6244 62.5203C40.4522 63.6233 41.3899 64.6395 42.4228 65.5533C44.4734 67.4263 46.6506 69.2169 48.7328 71.1502C50.815 73.0834 52.8529 75.0991 54.8178 77.232C55.8204 78.2877 56.7581 79.4032 57.6258 80.5724C58.4987 81.7561 59.2574 83.02 59.8918 84.347C61.1744 87.0366 61.9624 89.9351 62.218 92.9039C62.4765 95.9139 62.2993 98.9453 61.6919 101.905C61.3967 103.4 61.0093 104.875 60.532 106.323C60.0628 107.782 59.4909 109.207 58.8206 110.585L58.7984 110.63H4.68964L4.66746 110.595C2.13465 106.781 0.581287 102.402 0.144927 97.8448C-0.294089 93.4674 0.347978 89.0491 2.01479 84.9776C3.59895 81.0859 6.03821 77.6003 9.15196 74.779C10.663 73.4451 12.2948 72.2547 14.0263 71.2231C15.7123 70.1772 17.4142 69.2074 19.021 68.1489C20.6294 67.1435 22.107 65.9427 23.42 64.574C24.6739 63.2297 25.604 61.6167 26.1392 59.8581C26.6083 58.1423 26.682 56.3424 26.3547 54.594C26.042 52.9066 25.4791 51.2755 24.6845 49.7545C23.9245 48.2899 23.0131 46.909 21.9653 45.6345C20.9538 44.4117 19.8543 43.2645 18.6756 42.2022C16.3905 40.0978 14.0485 38.2564 11.9441 36.3644C10.8887 35.4136 9.8904 34.4628 8.96814 33.4899C8.07427 32.5373 7.25024 31.5216 6.50246 30.4505C5.15061 28.4863 4.10845 26.3261 3.41243 24.0455C2.80275 22.076 2.44912 20.0361 2.36024 17.9763C2.31587 17.5073 2.33489 17.0446 2.33489 16.5914C2.33489 16.1382 2.33488 15.6976 2.37608 15.2698C2.41728 14.8419 2.43947 14.4236 2.47116 14.0021C2.50285 13.5806 2.58843 13.2034 2.6423 12.82C2.99244 10.4855 3.70682 8.22041 4.75937 6.10747C4.90192 5.7806 5.06493 5.46305 5.24744 5.15669L5.63725 4.49431C5.84325 4.14253 5.95418 3.96505 5.95418 3.96505L5.63725 4.50382L5.26011 5.15669C5.08197 5.4644 4.92114 5.78182 4.77838 6.10747C3.73536 8.22554 3.02962 10.4935 2.68667 12.8295C2.6328 13.2098 2.56941 13.6028 2.52187 14.0053C2.47433 14.4078 2.45849 14.8293 2.42679 15.2571C2.3951 15.685 2.3951 16.1255 2.39193 16.5755C2.38876 17.0256 2.37608 17.4883 2.42045 17.9573C2.51213 20.0103 2.869 22.0428 3.48216 24.0043C4.17735 26.2768 5.21851 28.4286 6.56902 30.384C7.31493 31.4506 8.13797 32.4611 9.03153 33.4075C9.95061 34.3836 10.9489 35.3344 12.0043 36.2598C14.1087 38.1613 16.4413 39.9837 18.7421 42.0912C19.93 43.1613 21.038 44.317 22.0572 45.5489C23.1108 46.8327 24.0275 48.2231 24.7923 49.6974C25.5944 51.2278 26.1627 52.8698 26.4783 54.5686C26.8102 56.3358 26.7365 58.1552 26.2628 59.8898C25.7251 61.6688 24.7862 63.3007 23.5182 64.6595C22.1987 66.0362 20.7149 67.2454 19.1003 68.2598C17.4871 69.3215 15.7852 70.2913 14.1023 71.3371C12.3782 72.3661 10.7528 73.5522 9.24704 74.8804C6.15243 77.6872 3.72748 81.1529 2.15107 85.022C0.494335 89.0727 -0.142315 93.4683 0.29705 97.8226C0.733458 102.354 2.27909 106.708 4.7974 110.5L4.73401 110.465H58.7445L58.6716 110.509C59.3409 109.134 59.9107 107.713 60.3767 106.256C60.8515 104.815 61.2368 103.346 61.5303 101.857C62.135 98.9124 62.3112 95.8958 62.0532 92.9008C61.8026 89.9482 61.0198 87.0653 59.7428 84.3913C59.113 83.0739 58.3607 81.8187 57.4958 80.6421C56.6301 79.479 55.6968 78.3678 54.7005 77.3144C52.7462 75.1867 50.721 73.1626 48.6251 71.2421C46.546 69.312 44.3751 67.5245 42.3182 65.642C41.2771 64.7207 40.3311 63.6972 39.4944 62.5868C38.6743 61.4702 38.1125 60.1852 37.8496 58.8249C37.7227 58.1528 37.6538 57.471 37.6436 56.7871C37.6277 56.448 37.6436 56.1089 37.6436 55.7698C37.6436 55.4306 37.7006 55.0947 37.726 54.7588C37.8423 53.4187 38.1299 52.099 38.5817 50.832C39.5174 48.3536 41.0566 46.1478 43.0599 44.4143C44.0106 43.5332 45.028 42.7346 46.0263 41.9391C46.527 41.5398 47.0183 41.1373 47.4968 40.7253C47.9754 40.3133 48.4476 39.8696 48.942 39.4893C49.9498 38.7286 50.9735 38.0124 51.9528 37.2549C52.9315 36.5096 53.8718 35.7152 54.7703 34.8748C55.6528 34.0483 56.4797 33.1642 57.2455 32.2285C57.9922 31.3017 58.6691 30.3208 59.2706 29.2938C60.4254 27.2802 61.2453 25.0924 61.6983 22.8158C62.1105 20.6227 62.2267 18.3843 62.0437 16.1604C61.8666 14.0162 61.4856 11.8938 60.9059 9.82184C60.3583 7.83782 59.6894 5.88929 58.903 3.98723L58.9569 4.02209L20.1683 3.99357H9.62101H6.87643L5.95101 3.96505Z" fill="#263238"/>
  <path d="M56.8137 18.6356C64.7685 19.9445 52.2277 34.0351 45.1254 39.5939C41.0054 42.8107 36.6001 46.3033 34.6479 51.1459C32.4294 56.6414 34.0742 62.8151 33.003 68.3423C32.9685 68.5329 32.8632 68.7034 32.7081 68.8195C32.5531 68.9356 32.3599 68.9888 32.1673 68.9683C31.9747 68.9478 31.7969 68.8553 31.6698 68.7092C31.5426 68.563 31.4755 68.3742 31.4818 68.1806C31.5325 64.5518 31.4374 60.9262 30.8479 57.3545C29.9954 52.2837 28.0495 47.2794 24.5094 43.5682C21.6095 40.5352 17.8096 38.5227 14.7196 35.6894C10.2065 31.5535 5.5699 26.2197 5.1167 20.1157C5.1167 20.1157 13.7815 13.1433 18.5924 14.0148C24.2147 15.0449 29.7482 23.7191 38.4573 22.7271C44.5169 22.0331 47.5879 17.1207 56.8137 18.6356Z" fill="#6D67E4"/>
  <path d="M57.5212 94.048C57.3216 92.0577 56.7891 89.8075 55.0238 88.8694C53.9558 88.299 52.6532 88.3624 51.4806 88.6698C50.308 88.9772 49.2083 89.5128 48.0483 89.8582C45.7424 90.5363 43.2799 90.4574 41.0221 89.6332C38.8638 88.8409 37.013 87.4147 35.0005 86.2801C32.988 85.1456 30.6523 84.3152 28.4211 84.8698C24.5736 85.8206 22.5706 90.4604 18.7675 91.5791C17.0751 92.0736 15.2592 91.7947 13.5414 91.408C11.8237 91.0214 10.0964 90.5174 8.33751 90.584C6.95571 90.6347 5.52003 91.1133 4.55341 92.0577L4.52805 92.0862C4.36713 92.2439 4.22075 92.4157 4.0907 92.5996C2.91173 94.1843 2.72158 96.2855 3.08604 98.2061C3.49171 100.358 4.49636 102.345 5.57391 104.25C6.84161 106.494 8.28679 108.725 10.3848 110.221C12.9773 112.068 16.2321 110.794 19.4046 111.045C26.7984 111.628 34.7533 112.024 42.1503 111.454C46.058 111.137 49.7185 111.574 52.818 109.175C54.9985 107.489 56.4183 104.947 57.1029 102.279C57.7874 99.6101 57.7969 96.7894 57.5212 94.048Z" fill="#6D67E4"/>
  <path d="M0.768639 113C0.768639 113 0.619682 110.522 3.85233 109.14H60.6613C60.6613 109.14 63.6245 110.642 63.989 112.943L0.768639 113Z" fill="#263238"/>
  <path d="M59.4541 4.26591L59.3621 4.30711L5.9443 3.96483C5.9443 3.96483 5.75414 3.8444 5.47208 3.61938C5.13907 3.35851 4.89612 2.99992 4.77731 2.59392C4.65851 2.18793 4.66982 1.75493 4.80965 1.3557C4.94949 0.95646 5.21084 0.611037 5.557 0.367909C5.90317 0.124781 6.31678 -0.00384396 6.73978 8.75112e-05L58.5888 0.41843C60.7218 0.437445 61.3936 3.35316 59.4541 4.26591Z" fill="#263238"/>
  <g opacity="0.24">
    <path d="M50.8974 24.6444C51.0052 24.8504 50.6027 25.2783 49.8389 25.9755C49.0751 26.6727 47.9374 27.5887 46.5239 28.7391C44.8267 30.1413 43.0257 31.4126 41.1361 32.5422C39.9624 33.2219 38.7272 33.7895 37.4471 34.2378C36.7534 34.4775 36.0452 34.6734 35.3269 34.8241C34.5722 34.9843 33.806 35.0839 33.0355 35.122C31.4741 35.2069 29.9109 34.9918 28.4306 34.4881C27.1218 34.0121 25.8781 33.3732 24.7289 32.5866C23.664 31.883 22.7481 31.1858 21.8765 30.517C21.005 29.8483 20.2285 29.205 19.5249 28.5965C16.7202 26.1657 15.2433 24.3782 15.5285 24.0327C15.8137 23.6873 17.8104 24.8124 20.9163 26.7139L23.4517 28.2669C24.3612 28.8183 25.3342 29.43 26.3293 29.9941C27.3169 30.5738 28.3633 31.0466 29.4511 31.4044C30.5641 31.7377 31.7265 31.875 32.8865 31.8101C35.3205 31.6833 37.6816 30.8276 39.7258 29.8388C41.77 28.85 43.6208 27.6964 45.2245 26.7963C46.4936 26.0474 47.8204 25.4009 49.1924 24.8631C50.197 24.5113 50.8055 24.4447 50.8974 24.6444Z" fill="black"/>
  </g>
  <path d="M31.5203 74.9626C31.7448 74.8732 31.9955 74.8759 32.2181 74.9701C32.4407 75.0642 32.6172 75.2423 32.7095 75.4656C32.8017 75.689 32.8023 75.9397 32.7111 76.1635C32.6199 76.3873 32.4442 76.5661 32.222 76.6613C31.9999 76.7565 31.7492 76.7604 31.5243 76.6721C31.2993 76.5838 31.1182 76.4105 31.0201 76.1897C30.922 75.9688 30.9148 75.7182 31.0001 75.4921C31.0854 75.266 31.2563 75.0826 31.4759 74.9816" fill="#6D67E4"/>
  <path d="M12.4159 33.4835C12.3465 33.4265 12.2828 33.3628 12.2258 33.2933L11.7092 32.7292C11.4905 32.4788 11.2021 32.1873 10.9074 31.8165L9.89953 30.5488C9.55408 30.0607 9.16426 29.5346 8.77127 28.9641L8.1913 28.0419C8.09305 27.8834 7.98846 27.7249 7.89339 27.557L7.61449 27.0436C6.77103 25.5488 6.11026 23.958 5.64638 22.3055C5.18024 20.6544 4.92886 18.9501 4.89844 17.2347C4.89844 16.8385 4.92062 16.4551 4.92696 16.0779C4.92696 15.8909 4.92696 15.7071 4.95231 15.5265C4.97767 15.3458 4.99035 15.1683 5.00936 14.994C5.05056 14.6454 5.07592 14.3063 5.12346 13.983C5.171 13.6598 5.23755 13.3492 5.29143 13.0608C5.38017 12.4681 5.53863 11.9516 5.64955 11.4762C5.70977 11.248 5.7573 11.0325 5.81752 10.8423L5.99183 10.313L6.23586 9.58729C6.25918 9.50088 6.29103 9.41701 6.33094 9.33691C6.31791 9.42532 6.29669 9.51232 6.26755 9.59679C6.21368 9.78061 6.14396 10.0246 6.05205 10.3321L5.89358 10.8613C5.83971 11.0547 5.79534 11.2702 5.73829 11.4952C5.63687 11.9547 5.48792 12.4745 5.42136 13.0798C5.37066 13.3714 5.31995 13.6788 5.26607 13.9989C5.2122 14.319 5.19952 14.6549 5.16149 15.0035C5.16149 15.1779 5.12663 15.3522 5.10761 15.5328C5.08859 15.7135 5.10761 15.8973 5.08859 16.0811C5.08859 16.4551 5.06324 16.8354 5.06641 17.2284C5.09735 18.9337 5.34549 20.6281 5.80485 22.2707C6.26624 23.911 6.91827 25.4916 7.7476 26.9802C7.83951 27.1513 7.93142 27.3225 8.02016 27.4936C8.1089 27.6647 8.21982 27.8105 8.3149 27.9753L8.88537 28.8976C9.27201 29.4807 9.65549 30.0068 9.99143 30.4822L10.9802 31.7499C11.2655 32.1271 11.5475 32.4218 11.7567 32.6817L12.2511 33.268C12.3105 33.3363 12.3656 33.4083 12.4159 33.4835Z" fill="#263238"/>
  <path d="M9.4082 80.5658C9.42389 80.5293 9.443 80.4942 9.46525 80.4612L9.6554 80.1633C9.74097 80.0302 9.84556 79.8718 9.97233 79.6816L10.172 79.3647C10.2512 79.2601 10.3431 79.1555 10.435 79.0478L11.0689 78.2871C11.3129 78.0241 11.5918 77.7515 11.8866 77.4536C12.57 76.7956 13.2963 76.1836 14.0607 75.6218C15.7436 74.3541 17.9145 73.0864 20.2661 71.6C21.5026 70.838 22.6912 70.0008 23.8252 69.0931C25.0417 68.1241 26.116 66.989 27.0166 65.721C28.6651 63.1883 29.5608 60.2396 29.5996 57.2179C29.6397 54.7551 29.2272 52.3058 28.3826 49.992C27.8231 48.4306 27.1208 46.9241 26.2845 45.4916C25.9898 44.9814 25.7489 44.5947 25.5841 44.3317L25.3971 44.0338C25.3559 43.9672 25.3369 43.9292 25.3369 43.9292C25.3652 43.9576 25.3897 43.9896 25.4098 44.0243L25.6126 44.3158C25.7869 44.5694 26.0373 44.9497 26.3384 45.46C27.2005 46.8847 27.9223 48.3897 28.4935 49.954C29.3608 52.2774 29.7906 54.7412 29.7612 57.2211C29.7478 57.936 29.6895 58.6495 29.5869 59.3571C29.4842 60.0973 29.3285 60.8292 29.121 61.5471C28.6881 63.0672 28.0151 64.5083 27.1275 65.8161C26.2177 67.0978 25.1315 68.2448 23.9012 69.2231C22.7605 70.1315 21.5656 70.9698 20.3231 71.7331C17.962 73.2068 15.7879 74.4618 14.105 75.72C13.3408 76.2744 12.6125 76.8767 11.9246 77.5233C11.6299 77.8181 11.3478 78.0843 11.1006 78.3442L10.4667 79.089C10.3717 79.203 10.2797 79.3076 10.2005 79.4059L9.99452 79.707L9.67759 80.1792L9.47476 80.4676C9.45525 80.5021 9.43299 80.5349 9.4082 80.5658Z" fill="#263238"/>
  <path d="M6.46104 86.1657C6.44192 86.2172 6.4186 86.267 6.39132 86.3146L6.16313 86.7171C6.06171 86.8883 5.94128 87.1038 5.81768 87.351C5.69408 87.5982 5.53561 87.8898 5.40251 88.2225C5.33278 88.3873 5.25672 88.5585 5.18066 88.736C5.1046 88.9134 5.04121 89.1099 4.96515 89.3064C4.81303 89.6994 4.69259 90.1304 4.55315 90.5741C4.0019 92.5609 3.81189 94.6305 3.99219 96.6845C4.04606 97.1535 4.0841 97.6035 4.1665 98.0155C4.20136 98.2215 4.22988 98.4244 4.27108 98.6145C4.31228 98.8047 4.35665 98.9885 4.39785 99.1628C4.46757 99.5146 4.57216 99.822 4.64823 100.095C4.72429 100.367 4.80035 100.602 4.87007 100.792L5.01903 101.229C5.0404 101.279 5.05428 101.331 5.06022 101.384C5.02969 101.34 5.00517 101.292 4.98733 101.242C4.93979 101.125 4.88275 100.985 4.80986 100.814C4.71407 100.588 4.63049 100.358 4.55948 100.123C4.47391 99.8505 4.36299 99.5431 4.28376 99.1913C4.23939 99.017 4.19502 98.8332 4.14748 98.6431C4.09994 98.4529 4.07142 98.2469 4.03022 98.0409C3.94148 97.6226 3.89711 97.1725 3.84006 96.7003C3.64167 94.6336 3.83303 92.548 4.40419 90.5519C4.54681 90.0956 4.67358 89.6614 4.83521 89.2684C4.91444 89.0719 4.97782 88.8786 5.06022 88.6979L5.29475 88.1813C5.4342 87.8644 5.61168 87.5697 5.73528 87.3161C5.84697 87.0981 5.97076 86.8865 6.10608 86.6823L6.35962 86.2925C6.42301 86.2069 6.4547 86.1625 6.46104 86.1657Z" fill="#263238"/>
  <path d="M45.6422 93.7848L45.5788 93.8291L45.3824 93.9527L44.6122 94.4154L44.0544 94.7324C43.8453 94.8496 43.6139 94.9574 43.3667 95.081C42.866 95.3218 42.3145 95.6293 41.6616 95.8765L40.6475 96.2916C40.2957 96.4311 39.9122 96.542 39.5256 96.6751C38.7554 96.9572 37.8997 97.16 37.0092 97.3914C33.099 98.3072 29.0429 98.415 25.0896 97.7083C24.1832 97.5245 23.3211 97.366 22.5352 97.1252C22.1422 97.0111 21.7555 96.9223 21.3942 96.8082L20.3611 96.4311C19.6987 96.2187 19.1282 95.943 18.618 95.7275C18.3644 95.6166 18.1267 95.5183 17.9144 95.4106L17.3376 95.1095L16.5453 94.688L16.3424 94.5739L16.2759 94.5327C16.2759 94.5327 16.3044 94.5327 16.3519 94.5612L16.5611 94.6595L17.3661 95.0525L17.9461 95.3377C18.1616 95.4391 18.4025 95.531 18.656 95.6388C19.1662 95.8416 19.7367 96.111 20.4023 96.3138L21.4228 96.6846C21.7841 96.8051 22.1707 96.8906 22.5637 97.0015C23.3465 97.2361 24.2054 97.385 25.0991 97.5657C29.0342 98.2471 33.0654 98.1394 36.9585 97.2487C37.8459 97.0206 38.6984 96.8272 39.4685 96.5515C39.8552 96.4216 40.2355 96.317 40.5873 96.1775L41.6014 95.775C42.2543 95.5342 42.8089 95.2363 43.3097 95.0049C43.5569 94.8845 43.7914 94.7799 44.0006 94.688L44.5647 94.3711L45.3475 93.9337L45.5535 93.826C45.6169 93.7911 45.6422 93.7816 45.6422 93.7848Z" fill="#263238"/>
  <path d="M48.9478 26.7075C48.9284 26.7305 48.9061 26.7507 48.8813 26.7677L48.6721 26.9389C48.4788 27.0942 48.2094 27.3128 47.8639 27.5727C47.1604 28.1305 46.1399 28.9387 44.85 29.9021C43.3489 31.0512 41.7747 32.1014 40.1373 33.046C39.1635 33.591 38.1484 34.0583 37.1011 34.4437C35.9716 34.8547 34.7932 35.1168 33.596 35.2233C31.2682 35.354 28.9469 34.8709 26.8644 33.8225C25.9639 33.3651 25.0946 32.8484 24.2625 32.2759C23.4892 31.7308 22.7824 31.2015 22.1581 30.6913C20.8904 29.6835 19.9206 28.8309 19.236 28.2478L18.4532 27.5696L18.2536 27.3921L18.187 27.3255C18.187 27.3255 18.2155 27.3255 18.2631 27.3762L18.4754 27.5442L19.2772 28.1971C19.9745 28.7675 20.9696 29.6042 22.231 30.5994C22.8648 31.0969 23.5652 31.6199 24.3417 32.1586C25.171 32.7213 26.0359 33.2294 26.931 33.6799C28.9927 34.7075 31.2864 35.1805 33.5864 35.0522C34.7694 34.9473 35.9338 34.6895 37.0504 34.2852C38.0905 33.905 39.0993 33.444 40.0676 32.9066C41.7025 31.9791 43.2786 30.9514 44.7866 29.8292C46.0797 28.8785 47.1097 28.0861 47.8291 27.5442L48.6563 26.9104L48.8749 26.7519C48.8969 26.7335 48.9215 26.7186 48.9478 26.7075Z" fill="#263238"/>
  <g opacity="0.24">
    <path d="M20.3643 96.447C21.8665 95.287 23.9772 95.5659 25.8344 95.9589C27.6916 96.3519 29.5614 96.9826 31.4408 96.7195C32.8575 96.5199 34.1569 95.8258 35.5609 95.5215C36.9648 95.2173 38.654 95.4423 39.4305 96.6435C33.2246 98.6432 26.5372 98.5742 20.3738 96.447" fill="black"/>
  </g>
</svg>