<svg width="20" height="20" viewBox="0 0 20 20" fill="none" xmlns="http://www.w3.org/2000/svg">
<path d="M14.6334 14.9751H5.36675C2.05008 14.9751 1.04175 13.9667 1.04175 10.6501V5.36675C1.04175 2.05008 2.05008 1.04175 5.36675 1.04175H14.6251C17.9417 1.04175 18.9501 2.05008 18.9501 5.36675V10.6417C18.9584 13.9667 17.9501 14.9751 14.6334 14.9751ZM5.36675 2.29175C2.75008 2.29175 2.29175 2.75008 2.29175 5.36675V10.6417C2.29175 13.2584 2.75008 13.7167 5.36675 13.7167H14.6251C17.2417 13.7167 17.7001 13.2584 17.7001 10.6417V5.36675C17.7001 2.75008 17.2417 2.29175 14.6251 2.29175H5.36675Z" fill="#8F93A5"/>
<path d="M10 18.9584C9.65833 18.9584 9.375 18.6751 9.375 18.3334V14.3501C9.375 14.0084 9.65833 13.7251 10 13.7251C10.3417 13.7251 10.625 14.0084 10.625 14.3501V18.3334C10.625 18.6751 10.3417 18.9584 10 18.9584Z" fill="#8F93A5"/>
<path d="M18.3334 11.4583H1.66675C1.32508 11.4583 1.04175 11.1749 1.04175 10.8333C1.04175 10.4916 1.32508 10.2083 1.66675 10.2083H18.3334C18.6751 10.2083 18.9584 10.4916 18.9584 10.8333C18.9584 11.1749 18.6751 11.4583 18.3334 11.4583Z" fill="#8F93A5"/>
<path d="M13.75 18.9583H6.25C5.90833 18.9583 5.625 18.6749 5.625 18.3333C5.625 17.9916 5.90833 17.7083 6.25 17.7083H13.75C14.0917 17.7083 14.375 17.9916 14.375 18.3333C14.375 18.6749 14.0917 18.9583 13.75 18.9583Z" fill="#8F93A5"/>
</svg>
