<svg width="18" height="19" viewBox="0 0 18 19" fill="none" xmlns="http://www.w3.org/2000/svg">
<path d="M12.7505 2.14221H5.25049C3.18049 2.14221 1.50049 3.81471 1.50049 5.87721V10.3622V11.1122C1.50049 13.1747 3.18049 14.8472 5.25049 14.8472H6.37549C6.57799 14.8472 6.84799 14.9822 6.97549 15.1472L8.10049 16.6397C8.59549 17.2997 9.40549 17.2997 9.90049 16.6397L11.0255 15.1472C11.168 14.9597 11.393 14.8472 11.6255 14.8472H12.7505C14.8205 14.8472 16.5005 13.1747 16.5005 11.1122V5.87721C16.5005 3.81471 14.8205 2.14221 12.7505 2.14221ZM9.75049 10.9547H5.25049C4.94299 10.9547 4.68799 10.6997 4.68799 10.3922C4.68799 10.0847 4.94299 9.82971 5.25049 9.82971H9.75049C10.058 9.82971 10.313 10.0847 10.313 10.3922C10.313 10.6997 10.058 10.9547 9.75049 10.9547ZM12.7505 7.20471H5.25049C4.94299 7.20471 4.68799 6.94971 4.68799 6.64221C4.68799 6.33471 4.94299 6.07971 5.25049 6.07971H12.7505C13.058 6.07971 13.313 6.33471 13.313 6.64221C13.313 6.94971 13.058 7.20471 12.7505 7.20471Z" fill="#6D67E4"/>
</svg>
