<svg width="79" height="79" viewBox="0 0 79 79" fill="none" xmlns="http://www.w3.org/2000/svg">
<circle opacity="0.19" cx="39.5" cy="39.5" r="39.1792" stroke="#6D67E4" stroke-width="0.641667"/>
<circle cx="39.5" cy="39.5" r="31.25" stroke="#6D67E4" stroke-width="0.5"/>
<g filter="url(#filter0_d_538_13518)">
<rect x="14.5" y="14.5" width="50" height="50" rx="25" fill="white"/>
<g clip-path="url(#clip0_538_13518)">
<path d="M32.75 37.25C32.9489 37.25 33.1397 37.329 33.2803 37.4697C33.421 37.6103 33.5 37.8011 33.5 38V39.5C33.5 41.0913 34.1321 42.6174 35.2574 43.7426C36.3826 44.8679 37.9087 45.5 39.5 45.5C41.0913 45.5 42.6174 44.8679 43.7426 43.7426C44.8679 42.6174 45.5 41.0913 45.5 39.5V38C45.5 37.8011 45.579 37.6103 45.7197 37.4697C45.8603 37.329 46.0511 37.25 46.25 37.25C46.4489 37.25 46.6397 37.329 46.7803 37.4697C46.921 37.6103 47 37.8011 47 38V39.5C47 41.3593 46.3094 43.1523 45.0622 44.5312C43.8149 45.9101 42.1 46.7766 40.25 46.9625V50H44.75C44.9489 50 45.1397 50.079 45.2803 50.2197C45.421 50.3603 45.5 50.5511 45.5 50.75C45.5 50.9489 45.421 51.1397 45.2803 51.2803C45.1397 51.421 44.9489 51.5 44.75 51.5H34.25C34.0511 51.5 33.8603 51.421 33.7197 51.2803C33.579 51.1397 33.5 50.9489 33.5 50.75C33.5 50.5511 33.579 50.3603 33.7197 50.2197C33.8603 50.079 34.0511 50 34.25 50H38.75V46.9625C36.9 46.7766 35.1851 45.9101 33.9378 44.5312C32.6906 43.1523 32 41.3593 32 39.5V38C32 37.8011 32.079 37.6103 32.2197 37.4697C32.3603 37.329 32.5511 37.25 32.75 37.25Z" fill="#6D67E4"/>
<path d="M42.5 39.5C42.5 40.2956 42.1839 41.0587 41.6213 41.6213C41.0587 42.1839 40.2956 42.5 39.5 42.5C38.7044 42.5 37.9413 42.1839 37.3787 41.6213C36.8161 41.0587 36.5 40.2956 36.5 39.5V32C36.5 31.2044 36.8161 30.4413 37.3787 29.8787C37.9413 29.3161 38.7044 29 39.5 29C40.2956 29 41.0587 29.3161 41.6213 29.8787C42.1839 30.4413 42.5 31.2044 42.5 32V39.5ZM39.5 27.5C38.3065 27.5 37.1619 27.9741 36.318 28.818C35.4741 29.6619 35 30.8065 35 32V39.5C35 40.6935 35.4741 41.8381 36.318 42.682C37.1619 43.5259 38.3065 44 39.5 44C40.6935 44 41.8381 43.5259 42.682 42.682C43.5259 41.8381 44 40.6935 44 39.5V32C44 30.8065 43.5259 29.6619 42.682 28.818C41.8381 27.9741 40.6935 27.5 39.5 27.5Z" fill="#6D67E4"/>
</g>
</g>
<defs>
<filter id="filter0_d_538_13518" x="5.5" y="5.5" width="68" height="68" filterUnits="userSpaceOnUse" color-interpolation-filters="sRGB">
<feFlood flood-opacity="0" result="BackgroundImageFix"/>
<feColorMatrix in="SourceAlpha" type="matrix" values="0 0 0 0 0 0 0 0 0 0 0 0 0 0 0 0 0 0 127 0" result="hardAlpha"/>
<feOffset/>
<feGaussianBlur stdDeviation="4.5"/>
<feComposite in2="hardAlpha" operator="out"/>
<feColorMatrix type="matrix" values="0 0 0 0 0.121498 0 0 0 0 0.110331 0 0 0 0 0.274115 0 0 0 0.13 0"/>
<feBlend mode="normal" in2="BackgroundImageFix" result="effect1_dropShadow_538_13518"/>
<feBlend mode="normal" in="SourceGraphic" in2="effect1_dropShadow_538_13518" result="shape"/>
</filter>
<clipPath id="clip0_538_13518">
<rect width="24" height="24" fill="white" transform="translate(27.5 27.5)"/>
</clipPath>
</defs>
</svg>
