<svg width="20" height="20" viewBox="0 0 20 20" fill="none" xmlns="http://www.w3.org/2000/svg">
<path d="M12.4999 18.9584H7.49992C3.82492 18.9584 2.70825 17.8417 2.70825 14.1667V5.83341C2.70825 2.15841 3.82492 1.04175 7.49992 1.04175H12.4999C16.1749 1.04175 17.2916 2.15841 17.2916 5.83341V14.1667C17.2916 17.8417 16.1749 18.9584 12.4999 18.9584ZM7.49992 2.29175C4.51659 2.29175 3.95825 2.85841 3.95825 5.83341V14.1667C3.95825 17.1417 4.51659 17.7084 7.49992 17.7084H12.4999C15.4833 17.7084 16.0416 17.1417 16.0416 14.1667V5.83341C16.0416 2.85841 15.4833 2.29175 12.4999 2.29175H7.49992Z" fill="white"/>
<path d="M11.6666 5.20825H8.33325C7.99159 5.20825 7.70825 4.92492 7.70825 4.58325C7.70825 4.24159 7.99159 3.95825 8.33325 3.95825H11.6666C12.0083 3.95825 12.2916 4.24159 12.2916 4.58325C12.2916 4.92492 12.0083 5.20825 11.6666 5.20825Z" fill="white"/>
<path d="M9.99992 16.5499C8.94159 16.5499 8.08325 15.6916 8.08325 14.6332C8.08325 13.5749 8.94159 12.7166 9.99992 12.7166C11.0583 12.7166 11.9166 13.5749 11.9166 14.6332C11.9166 15.6916 11.0583 16.5499 9.99992 16.5499ZM9.99992 13.9582C9.63325 13.9582 9.33325 14.2582 9.33325 14.6249C9.33325 14.9916 9.63325 15.2916 9.99992 15.2916C10.3666 15.2916 10.6666 14.9916 10.6666 14.6249C10.6666 14.2582 10.3666 13.9582 9.99992 13.9582Z" fill="white"/>
</svg>
