<svg width="46" height="46" viewBox="0 0 46 46" fill="none" xmlns="http://www.w3.org/2000/svg">
<g filter="url(#filter0_i_2231_8529)">
<circle cx="22.651" cy="22.6508" r="22.2656" transform="rotate(1 22.651 22.6508)" fill="white"/>
</g>
<path d="M20.5968 14.0394C24.6712 14.5258 32.7234 21.5668 31.8407 28.9612C30.9579 36.3556 22.1922 35.2919 18.1177 34.8055C14.0432 34.3191 10.7382 33.9417 11.621 26.5473C12.5037 19.153 16.5223 13.5529 20.5968 14.0394Z" fill="url(#paint0_linear_2231_8529)"/>
<path d="M35.9869 17.7681C36.3614 21.8543 31.1557 31.1985 23.7399 31.8782C16.3241 32.5579 15.5351 23.7632 15.1606 19.6769C14.786 15.5906 14.4654 12.2796 21.8813 11.5999C29.2971 10.9202 35.6124 13.6818 35.9869 17.7681Z" fill="url(#paint1_linear_2231_8529)"/>
<path d="M12.8348 11.0718C16.6095 9.46266 27.0996 11.5534 30.0199 18.4038C32.9401 25.2542 24.8106 28.7012 21.0359 30.3103C17.2612 31.9194 14.2079 33.2396 11.2876 26.3891C8.36735 19.5387 9.06003 12.6809 12.8348 11.0718Z" fill="url(#paint2_linear_2231_8529)"/>
<defs>
<filter id="filter0_i_2231_8529" x="0.385254" y="0.38501" width="44.5312" height="44.5315" filterUnits="userSpaceOnUse" color-interpolation-filters="sRGB">
<feFlood flood-opacity="0" result="BackgroundImageFix"/>
<feBlend mode="normal" in="SourceGraphic" in2="BackgroundImageFix" result="shape"/>
<feColorMatrix in="SourceAlpha" type="matrix" values="0 0 0 0 0 0 0 0 0 0 0 0 0 0 0 0 0 0 127 0" result="hardAlpha"/>
<feMorphology radius="5" operator="erode" in="SourceAlpha" result="effect1_innerShadow_2231_8529"/>
<feOffset/>
<feGaussianBlur stdDeviation="5.45"/>
<feComposite in2="hardAlpha" operator="arithmetic" k2="-1" k3="1"/>
<feColorMatrix type="matrix" values="0 0 0 0 0.427451 0 0 0 0 0.403922 0 0 0 0 0.894118 0 0 0 0.63 0"/>
<feBlend mode="normal" in2="shape" result="effect1_innerShadow_2231_8529"/>
</filter>
<linearGradient id="paint0_linear_2231_8529" x1="10.3647" y1="34.9355" x2="31.1819" y2="23.4814" gradientUnits="userSpaceOnUse">
<stop stop-color="#6D67E4"/>
<stop offset="1" stop-color="#6D67E4" stop-opacity="0"/>
</linearGradient>
<linearGradient id="paint1_linear_2231_8529" x1="13.4156" y1="12.1217" x2="28.9616" y2="30.0905" gradientUnits="userSpaceOnUse">
<stop stop-color="#6D67E4"/>
<stop offset="1" stop-color="#6D67E4" stop-opacity="0"/>
</linearGradient>
<linearGradient id="paint2_linear_2231_8529" x1="14.3794" y1="34.2873" x2="26.7175" y2="13.9815" gradientUnits="userSpaceOnUse">
<stop stop-color="#6D67E4"/>
<stop offset="1" stop-color="#6D67E4" stop-opacity="0"/>
</linearGradient>
</defs>
</svg>
