<svg width="24" height="25" viewBox="0 0 24 25" fill="none" xmlns="http://www.w3.org/2000/svg">
<path d="M18.07 9.01001L9.51002 4.73001C3.76002 1.85001 1.40002 4.21001 4.28002 9.96001L5.15002 11.7C5.40002 12.21 5.40002 12.8 5.15002 13.31L4.28002 15.04C1.40002 20.79 3.75002 23.15 9.51002 20.27L18.07 15.99C21.91 14.07 21.91 10.93 18.07 9.01001ZM14.84 13.25H9.44002C9.03002 13.25 8.69002 12.91 8.69002 12.5C8.69002 12.09 9.03002 11.75 9.44002 11.75H14.84C15.25 11.75 15.59 12.09 15.59 12.5C15.59 12.91 15.25 13.25 14.84 13.25Z" fill="#6D67E4"/>
</svg>
