<svg width="18" height="19" viewBox="0 0 18 19" fill="none" xmlns="http://www.w3.org/2000/svg">
<path d="M12.143 2.14221H5.85805C3.12805 2.14221 1.50055 3.76971 1.50055 6.49971V12.7772C1.50055 15.5147 3.12805 17.1422 5.85805 17.1422H12.1355C14.8656 17.1422 16.493 15.5147 16.493 12.7847V6.49971C16.5005 3.76971 14.873 2.14221 12.143 2.14221ZM5.06305 11.2472C5.06305 11.5547 4.80805 11.8097 4.50055 11.8097C4.19305 11.8097 3.93805 11.5547 3.93805 11.2472V8.03721C3.93805 7.72971 4.19305 7.47471 4.50055 7.47471C4.80805 7.47471 5.06305 7.72971 5.06305 8.03721V11.2472ZM7.31305 12.3197C7.31305 12.6272 7.05805 12.8822 6.75055 12.8822C6.44305 12.8822 6.18805 12.6272 6.18805 12.3197V6.96471C6.18805 6.65721 6.44305 6.40221 6.75055 6.40221C7.05805 6.40221 7.31305 6.65721 7.31305 6.96471V12.3197ZM9.56305 13.3922C9.56305 13.6997 9.30805 13.9547 9.00055 13.9547C8.69305 13.9547 8.43805 13.6997 8.43805 13.3922V5.89221C8.43805 5.58471 8.69305 5.32971 9.00055 5.32971C9.30805 5.32971 9.56305 5.58471 9.56305 5.89221V13.3922ZM11.813 12.3197C11.813 12.6272 11.558 12.8822 11.2505 12.8822C10.943 12.8822 10.688 12.6272 10.688 12.3197V6.96471C10.688 6.65721 10.943 6.40221 11.2505 6.40221C11.558 6.40221 11.813 6.65721 11.813 6.96471V12.3197ZM14.063 11.2472C14.063 11.5547 13.808 11.8097 13.5005 11.8097C13.193 11.8097 12.938 11.5547 12.938 11.2472V8.03721C12.938 7.72971 13.193 7.47471 13.5005 7.47471C13.808 7.47471 14.063 7.72971 14.063 8.03721V11.2472Z" fill="#6D67E4"/>
</svg>
