<svg width="20" height="20" viewBox="0 0 20 20" fill="none" xmlns="http://www.w3.org/2000/svg">
<path d="M13.4917 1.66669H6.50835C3.47502 1.66669 1.66669 3.47502 1.66669 6.50835V13.4834C1.66669 16.525 3.47502 18.3334 6.50835 18.3334H13.4834C16.5167 18.3334 18.325 16.525 18.325 13.4917V6.50835C18.3334 3.47502 16.525 1.66669 13.4917 1.66669ZM10 5.00002C11.6584 5.00002 13 6.34169 13 8.00002C13 8.39169 12.925 8.76669 12.7917 9.10835C12.45 9.97502 11.7084 10.65 10.7917 10.9C10.5417 10.9667 10.275 11.0084 10 11.0084C9.72502 11.0084 9.45835 10.975 9.20835 10.9C8.29169 10.65 7.55002 9.98335 7.20835 9.10835C7.07502 8.76669 7.00002 8.39169 7.00002 8.00002C7.00002 6.34169 8.34169 5.00002 10 5.00002ZM8.00002 15C6.34169 15 5.00002 13.6584 5.00002 12C5.00002 11.0908 5.40881 10.2756 6.04647 9.72515C6.27701 9.52614 6.61567 9.64737 6.77082 9.90943C7.26344 10.7415 8.0691 11.3579 9.00835 11.6084C9.32502 11.7 9.65002 11.7417 10 11.7417C10.2075 11.7417 10.4057 11.7263 10.5984 11.6956C10.7962 11.6641 11 11.7915 11 11.9917C11 12.875 10.6167 13.675 10 14.225C9.46669 14.7084 8.76669 15 8.00002 15ZM12 15C11.7493 15 11.5028 14.9697 11.2674 14.9112C10.9375 14.8292 10.8768 14.422 11.0726 14.1441C11.5091 13.5245 11.75 12.7746 11.75 12C11.75 11.8334 11.7334 11.6584 11.7084 11.5C11.6935 11.4057 11.7415 11.313 11.8249 11.2665C12.4003 10.9453 12.8866 10.4809 13.2223 9.9123C13.3774 9.64943 13.7164 9.52585 13.9482 9.72442C14.5909 10.2749 15 11.0905 15 12C15 13.6584 13.6584 15 12 15Z" fill="#6D67E4"/>
</svg>
