<svg width="20" height="20" viewBox="0 0 20 20" fill="none" xmlns="http://www.w3.org/2000/svg">
<path d="M11 12C11 12.8833 10.6167 13.6833 10 14.2333C9.46667 14.7167 8.76665 15 7.99998 15C6.34165 15 5 13.6583 5 12C5 10.6167 5.94169 9.45 7.20835 9.10834C7.55002 9.975 8.29166 10.65 9.20832 10.9C9.45832 10.9667 9.725 11.0083 10 11.0083C10.275 11.0083 10.5417 10.975 10.7917 10.9C10.925 11.2333 11 11.6083 11 12Z" stroke="#8F93A5" stroke-width="1.5" stroke-linecap="round" stroke-linejoin="round"/>
<path d="M13 8C13 8.39167 12.925 8.76667 12.7916 9.10833C12.45 9.975 11.7083 10.65 10.7917 10.9C10.5417 10.9667 10.275 11.0083 9.99998 11.0083C9.72498 11.0083 9.4583 10.975 9.2083 10.9C8.29164 10.65 7.55 9.98333 7.20833 9.10833C7.075 8.76667 7 8.39167 7 8C7 6.34167 8.34165 5 9.99998 5C11.6583 5 13 6.34167 13 8Z" stroke="#8F93A5" stroke-width="1.5" stroke-linecap="round" stroke-linejoin="round"/>
<path d="M15 12C15 13.6583 13.6584 15 12 15C11.2334 15 10.5333 14.7083 10 14.2333C10.6167 13.6916 11 12.8916 11 12C11 11.6083 10.925 11.2333 10.7917 10.8916C11.7083 10.6416 12.45 9.97498 12.7916 9.09998C14.0583 9.44998 15 10.6166 15 12Z" stroke="#8F93A5" stroke-width="1.5" stroke-linecap="round" stroke-linejoin="round"/>
<path d="M7.50002 18.3334H12.5C16.6667 18.3334 18.3334 16.6667 18.3334 12.5V7.50002C18.3334 3.33335 16.6667 1.66669 12.5 1.66669H7.50002C3.33335 1.66669 1.66669 3.33335 1.66669 7.50002V12.5C1.66669 16.6667 3.33335 18.3334 7.50002 18.3334Z" stroke="#8F93A5" stroke-width="1.5" stroke-linecap="round" stroke-linejoin="round"/>
</svg>
