<svg width="20" height="20" viewBox="0 0 20 20" fill="none" xmlns="http://www.w3.org/2000/svg">
<path d="M13.4916 1.66669H6.50829C3.47496 1.66669 1.66663 3.47502 1.66663 6.50835V13.4834C1.66663 16.525 3.47496 18.3334 6.50829 18.3334H13.4833C16.5166 18.3334 18.325 16.525 18.325 13.4917V6.50835C18.3333 3.47502 16.525 1.66669 13.4916 1.66669ZM6.39163 4.58335C6.39163 4.24169 6.67496 3.95835 7.01663 3.95835C7.35829 3.95835 7.64163 4.24169 7.64163 4.58335V7.83335C7.64163 8.17502 7.35829 8.45835 7.01663 8.45835C6.67496 8.45835 6.39163 8.17502 6.39163 7.83335V4.58335ZM7.99251 13.6666C7.7916 13.7624 7.64163 13.9532 7.64163 14.1758V15.4167C7.64163 15.7584 7.35829 16.0417 7.01663 16.0417C6.67496 16.0417 6.39163 15.7584 6.39163 15.4167V14.1758C6.39163 13.9532 6.24162 13.7624 6.0408 13.6664C5.27606 13.3007 4.74996 12.5262 4.74996 11.625C4.74996 10.375 5.76663 9.35002 7.01663 9.35002C8.26663 9.35002 9.29163 10.3667 9.29163 11.625C9.29163 12.5264 8.75904 13.3009 7.99251 13.6666ZM13.6083 15.4167C13.6083 15.7584 13.325 16.0417 12.9833 16.0417C12.6416 16.0417 12.3583 15.7584 12.3583 15.4167V12.1667C12.3583 11.825 12.6416 11.5417 12.9833 11.5417C13.325 11.5417 13.6083 11.825 13.6083 12.1667V15.4167ZM12.9833 10.6417C11.7333 10.6417 10.7083 9.62502 10.7083 8.36669C10.7083 7.46535 11.2409 6.69082 12.0074 6.32515C12.2083 6.22931 12.3583 6.03849 12.3583 5.8159V4.58335C12.3583 4.24169 12.6416 3.95835 12.9833 3.95835C13.325 3.95835 13.6083 4.24169 13.6083 4.58335V5.82423C13.6083 6.04683 13.7583 6.2376 13.9591 6.33363C14.7239 6.69937 15.25 7.47381 15.25 8.37502C15.25 9.62502 14.2333 10.6417 12.9833 10.6417Z" fill="#6D67E4"/>
</svg>
