<svg width="20" height="20" viewBox="0 0 20 20" fill="none" xmlns="http://www.w3.org/2000/svg">
<path d="M18.3334 6.29165C18.3334 6.84165 17.8834 7.29165 17.3334 7.29165H2.66669C2.11669 7.29165 1.66669 6.84165 1.66669 6.29165V6.28331C1.66669 4.37498 3.20835 2.83331 5.11669 2.83331H14.875C16.7834 2.83331 18.3334 4.38331 18.3334 6.29165Z" fill="#6D67E4"/>
<path d="M1.66669 9.54169V13.7167C1.66669 15.625 3.20835 17.1667 5.11669 17.1667H14.875C16.7834 17.1667 18.3334 15.6167 18.3334 13.7084V9.54169C18.3334 8.99169 17.8834 8.54169 17.3334 8.54169H2.66669C2.11669 8.54169 1.66669 8.99169 1.66669 9.54169ZM6.66669 14.375H5.00002C4.65835 14.375 4.37502 14.0917 4.37502 13.75C4.37502 13.4084 4.65835 13.125 5.00002 13.125H6.66669C7.00835 13.125 7.29169 13.4084 7.29169 13.75C7.29169 14.0917 7.00835 14.375 6.66669 14.375ZM12.0834 14.375H8.75002C8.40835 14.375 8.12502 14.0917 8.12502 13.75C8.12502 13.4084 8.40835 13.125 8.75002 13.125H12.0834C12.425 13.125 12.7084 13.4084 12.7084 13.75C12.7084 14.0917 12.425 14.375 12.0834 14.375Z" fill="#6D67E4"/>
</svg>
