<svg width="20" height="20" viewBox="0 0 20 20" fill="none" xmlns="http://www.w3.org/2000/svg">
<path fill-rule="evenodd" clip-rule="evenodd" d="M12.4234 14.0708H7.57759C7.23259 14.0708 6.95259 13.7908 6.95259 13.4458C6.95259 13.1008 7.23259 12.8208 7.57759 12.8208H12.4234C12.7684 12.8208 13.0484 13.1008 13.0484 13.4458C13.0484 13.7908 12.7684 14.0708 12.4234 14.0708ZM16.0409 5.13167C15.7384 4.865 15.3943 4.56333 14.9843 4.18417C14.7984 4.03417 14.5951 3.8625 14.3793 3.68083C13.1626 2.655 11.4959 1.25 9.97676 1.25C8.47509 1.25 6.91593 2.57667 5.66343 3.6425C5.43176 3.83917 5.21509 4.02417 4.99426 4.20333C4.60593 4.56333 4.26176 4.86583 3.95843 5.13333C1.96926 6.88417 1.59509 7.34333 1.59509 11.4275C1.59509 18.75 3.71259 18.75 10.0001 18.75C16.2868 18.75 18.4051 18.75 18.4051 11.4275C18.4051 7.3425 18.0309 6.88333 16.0409 5.13167Z" fill="#6D67E4"/>
</svg>
