<svg width="20" height="20" viewBox="0 0 20 20" fill="none" xmlns="http://www.w3.org/2000/svg">
<path d="M7.49996 18.3334H12.5C16.6666 18.3334 18.3333 16.6667 18.3333 12.5V7.50002C18.3333 3.33335 16.6666 1.66669 12.5 1.66669H7.49996C3.33329 1.66669 1.66663 3.33335 1.66663 7.50002V12.5C1.66663 16.6667 3.33329 18.3334 7.49996 18.3334Z" stroke="#8F93A5" stroke-width="1.5" stroke-linecap="round" stroke-linejoin="round"/>
<path d="M12.975 15.4167V12.1667" stroke="#8F93A5" stroke-width="1.5" stroke-miterlimit="10" stroke-linecap="round" stroke-linejoin="round"/>
<path d="M12.975 6.20831V4.58331" stroke="#8F93A5" stroke-width="1.5" stroke-miterlimit="10" stroke-linecap="round" stroke-linejoin="round"/>
<path d="M12.975 10.5416C14.1716 10.5416 15.1417 9.5716 15.1417 8.37498C15.1417 7.17836 14.1716 6.20831 12.975 6.20831C11.7784 6.20831 10.8083 7.17836 10.8083 8.37498C10.8083 9.5716 11.7784 10.5416 12.975 10.5416Z" stroke="#8F93A5" stroke-width="1.5" stroke-miterlimit="10" stroke-linecap="round" stroke-linejoin="round"/>
<path d="M7.02502 15.4167V13.7917" stroke="#8F93A5" stroke-width="1.5" stroke-miterlimit="10" stroke-linecap="round" stroke-linejoin="round"/>
<path d="M7.02502 7.83331V4.58331" stroke="#8F93A5" stroke-width="1.5" stroke-miterlimit="10" stroke-linecap="round" stroke-linejoin="round"/>
<path d="M7.02494 13.7916C8.22156 13.7916 9.19161 12.8216 9.19161 11.625C9.19161 10.4284 8.22156 9.45831 7.02494 9.45831C5.82833 9.45831 4.85828 10.4284 4.85828 11.625C4.85828 12.8216 5.82833 13.7916 7.02494 13.7916Z" stroke="#8F93A5" stroke-width="1.5" stroke-miterlimit="10" stroke-linecap="round" stroke-linejoin="round"/>
</svg>
