<svg width="20" height="20" viewBox="0 0 20 20" fill="none" xmlns="http://www.w3.org/2000/svg">
<path d="M13.7084 12V7.08333C13.7084 6.625 13.3334 6.25 12.8751 6.25H10.4584" stroke="#8F93A5" stroke-width="1.5" stroke-linecap="round" stroke-linejoin="round"/>
<path d="M11.7084 5L10.2084 6.25L11.7084 7.5" stroke="#8F93A5" stroke-width="1.5" stroke-linecap="round" stroke-linejoin="round"/>
<path d="M6.29169 8.5V12" stroke="#8F93A5" stroke-width="1.5" stroke-linecap="round" stroke-linejoin="round"/>
<path d="M6.4167 8.24999C7.31416 8.24999 8.04171 7.52247 8.04171 6.62501C8.04171 5.72755 7.31416 5 6.4167 5C5.51923 5 4.79169 5.72755 4.79169 6.62501C4.79169 7.52247 5.51923 8.24999 6.4167 8.24999Z" stroke="#8F93A5" stroke-width="1.5" stroke-linecap="round" stroke-linejoin="round"/>
<path d="M6.29168 15C7.1201 15 7.79167 14.3284 7.79167 13.5C7.79167 12.6716 7.1201 12 6.29168 12C5.46325 12 4.79169 12.6716 4.79169 13.5C4.79169 14.3284 5.46325 15 6.29168 15Z" stroke="#8F93A5" stroke-width="1.5" stroke-linecap="round" stroke-linejoin="round"/>
<path d="M13.7084 15C14.5368 15 15.2084 14.3284 15.2084 13.5C15.2084 12.6716 14.5368 12 13.7084 12C12.8799 12 12.2084 12.6716 12.2084 13.5C12.2084 14.3284 12.8799 15 13.7084 15Z" stroke="#8F93A5" stroke-width="1.5" stroke-linecap="round" stroke-linejoin="round"/>
<path d="M7.50002 18.3334H12.5C16.6667 18.3334 18.3334 16.6667 18.3334 12.5V7.50002C18.3334 3.33335 16.6667 1.66669 12.5 1.66669H7.50002C3.33335 1.66669 1.66669 3.33335 1.66669 7.50002V12.5C1.66669 16.6667 3.33335 18.3334 7.50002 18.3334Z" stroke="#8F93A5" stroke-width="1.5" stroke-linecap="round" stroke-linejoin="round"/>
</svg>
