<svg width="20" height="20" viewBox="0 0 20 20" fill="none" xmlns="http://www.w3.org/2000/svg">
<path d="M13.4917 1.66669H6.50835C3.47502 1.66669 1.66669 3.47502 1.66669 6.50835V13.4834C1.66669 16.525 3.47502 18.3334 6.50835 18.3334H13.4834C16.5167 18.3334 18.325 16.525 18.325 13.4917V6.50835C18.3334 3.47502 16.525 1.66669 13.4917 1.66669ZM8.20835 13.7084C8.20835 14.65 7.44169 15.4167 6.50002 15.4167C5.55835 15.4167 4.79169 14.65 4.79169 13.7084C4.79169 12.9834 5.24169 12.375 5.87502 12.125V8.55002C5.17502 8.29169 4.66669 7.62502 4.66669 6.83335C4.66669 5.82502 5.49169 5.00002 6.50002 5.00002C7.50835 5.00002 8.33335 5.82502 8.33335 6.83335C8.33335 7.62502 7.82502 8.29169 7.12502 8.55002V12.125C7.75835 12.375 8.20835 12.9917 8.20835 13.7084ZM13.9584 15.4167C13.0167 15.4167 12.25 14.65 12.25 13.7084C12.25 12.9834 12.7 12.375 13.3334 12.125V7.29169C13.3334 7.17502 13.2417 7.08335 13.125 7.08335H12.1834L12.3584 7.22502C12.625 7.45002 12.6584 7.84169 12.4417 8.10835C12.3167 8.25835 12.1334 8.33335 11.9584 8.33335C11.8167 8.33335 11.675 8.28335 11.5584 8.19169L10.0584 6.94169C9.91669 6.81669 9.83335 6.64169 9.83335 6.45835C9.83335 6.27502 9.91669 6.10002 10.0584 5.97502L11.5584 4.72502C11.825 4.50835 12.2167 4.54169 12.4417 4.80835C12.6667 5.07502 12.625 5.46669 12.3584 5.69169L12.1834 5.83335H13.125C13.925 5.83335 14.5834 6.49169 14.5834 7.29169V12.125C15.2167 12.375 15.6667 12.9917 15.6667 13.7084C15.6667 14.65 14.9 15.4167 13.9584 15.4167Z" fill="#6D67E4"/>
</svg>
