<svg width="20" height="20" viewBox="0 0 20 20" fill="none" xmlns="http://www.w3.org/2000/svg">
<path d="M16.8926 9.13H12.2374C11.2992 9.13 10.7012 8.06029 11.1548 7.18259L12.356 4.85666L13.4798 2.67885C13.949 1.77372 15.1759 1.77372 15.645 2.67885L16.774 4.85666L17.3153 5.90443L17.9752 7.18259C18.4288 8.06029 17.8308 9.13 16.8926 9.13Z" fill="#6D67E4"/>
<path d="M6.03329 11.1917H4.44996C2.62496 11.1917 1.66663 12.15 1.66663 13.9667V15.55C1.66663 17.375 2.62496 18.3333 4.44163 18.3333H6.02496C7.84163 18.3333 8.79996 17.375 8.79996 15.5583V13.975C8.80829 12.15 7.84996 11.1917 6.03329 11.1917Z" fill="#6D67E4"/>
<path d="M5.24163 8.81669C7.21604 8.81669 8.81663 7.2161 8.81663 5.24169C8.81663 3.26727 7.21604 1.66669 5.24163 1.66669C3.26721 1.66669 1.66663 3.26727 1.66663 5.24169C1.66663 7.2161 3.26721 8.81669 5.24163 8.81669Z" fill="#6D67E4"/>
<path d="M14.7583 18.3333C16.7328 18.3333 18.3333 16.7328 18.3333 14.7583C18.3333 12.7839 16.7328 11.1833 14.7583 11.1833C12.7839 11.1833 11.1833 12.7839 11.1833 14.7583C11.1833 16.7328 12.7839 18.3333 14.7583 18.3333Z" fill="#6D67E4"/>
</svg>
