<svg width="20" height="20" viewBox="0 0 20 20" fill="none" xmlns="http://www.w3.org/2000/svg">
<path d="M17.1763 8.33335H12.8236C11.9464 8.33335 11.3872 7.33317 11.8114 6.5125L12.9345 4.33771L13.9853 2.30142C14.4239 1.45511 15.5712 1.45511 16.0098 2.30142L17.0654 4.33771L17.5715 5.31739L18.1885 6.5125C18.6127 7.33317 18.0536 8.33335 17.1763 8.33335Z" stroke="#8F93A5" stroke-width="1.5" stroke-linecap="round" stroke-linejoin="round"/>
<path d="M4.16663 18.3334H5.83329C7.49996 18.3334 8.33329 17.5 8.33329 15.8334V14.1667C8.33329 12.5 7.49996 11.6667 5.83329 11.6667H4.16663C2.49996 11.6667 1.66663 12.5 1.66663 14.1667V15.8334C1.66663 17.5 2.49996 18.3334 4.16663 18.3334Z" stroke="#8F93A5" stroke-width="1.5" stroke-miterlimit="10" stroke-linecap="round" stroke-linejoin="round"/>
<path d="M4.99996 8.33335C6.84091 8.33335 8.33329 6.84097 8.33329 5.00002C8.33329 3.15907 6.84091 1.66669 4.99996 1.66669C3.15901 1.66669 1.66663 3.15907 1.66663 5.00002C1.66663 6.84097 3.15901 8.33335 4.99996 8.33335Z" stroke="#8F93A5" stroke-width="1.5" stroke-miterlimit="10" stroke-linecap="round" stroke-linejoin="round"/>
<path d="M15 18.3334C16.8409 18.3334 18.3333 16.841 18.3333 15C18.3333 13.1591 16.8409 11.6667 15 11.6667C13.159 11.6667 11.6666 13.1591 11.6666 15C11.6666 16.841 13.159 18.3334 15 18.3334Z" stroke="#8F93A5" stroke-width="1.5" stroke-miterlimit="10" stroke-linecap="round" stroke-linejoin="round"/>
</svg>
