<svg width="20" height="20" viewBox="0 0 20 20" fill="none" xmlns="http://www.w3.org/2000/svg">
<path d="M13.4917 1.66669H6.50835C3.47502 1.66669 1.66669 3.47502 1.66669 6.50835V13.4834C1.66669 16.525 3.47502 18.3334 6.50835 18.3334H13.4834C16.5167 18.3334 18.325 16.525 18.325 13.4917V6.50835C18.3334 3.47502 16.525 1.66669 13.4917 1.66669ZM8.25835 13.4917C8.25835 14.025 7.82502 14.4584 7.28335 14.4584C6.75002 14.4584 6.31669 14.025 6.31669 13.4917V10.775C6.31669 10.2417 6.75002 9.80835 7.28335 9.80835C7.82502 9.80835 8.25835 10.2417 8.25835 10.775V13.4917ZM13.6834 13.4917C13.6834 14.025 13.25 14.4584 12.7167 14.4584C12.175 14.4584 11.7417 14.025 11.7417 13.4917V6.50835C11.7417 5.97502 12.175 5.54169 12.7167 5.54169C13.25 5.54169 13.6834 5.97502 13.6834 6.50835V13.4917Z" fill="#6D67E4"/>
</svg>
