<svg width="56" height="10" viewBox="0 0 56 10" fill="none" xmlns="http://www.w3.org/2000/svg">
<path d="M18.0237 6.61368C18.0237 7.61731 17.2205 8.43092 16.2297 8.43092C15.239 8.43092 14.4358 7.61731 14.4358 6.61368C14.4358 5.61005 15.239 4.79644 16.2297 4.79644C17.2205 4.79644 18.0237 5.61005 18.0237 6.61368Z" fill="#1F1C46"/>
<path d="M30.8093 3.51948C30.8093 2.75713 31.2437 2.40875 32.1126 2.47433V0.949649C31.1536 0.892269 30.4322 1.089 29.9486 1.53985C29.4649 1.9907 29.2231 2.65057 29.2231 3.51948V3.58095H28.3378V5.10564H29.2231V9.72886H30.8093V5.10564H32.1126V3.58095H30.8093V3.51948Z" fill="#1F1C46"/>
<path d="M1.95907 9.33838C2.54108 9.71545 3.25833 9.90399 4.11084 9.90399C5.03713 9.90399 5.78717 9.67037 6.36098 9.20313C6.94298 8.73589 7.23398 8.1047 7.23398 7.30957C7.23398 7.06366 7.20119 6.83823 7.13561 6.6333C7.07823 6.42017 7.00446 6.23984 6.91429 6.09229C6.83232 5.94474 6.70936 5.80129 6.54541 5.66193C6.38147 5.52258 6.23392 5.41192 6.10277 5.32995C5.97981 5.24797 5.79947 5.1619 5.56175 5.07173C5.33223 4.97337 5.14779 4.90369 5.00844 4.8627C4.87728 4.81352 4.68055 4.74794 4.41824 4.66597C3.77886 4.46924 3.3444 4.2889 3.11488 4.12496C2.89356 3.95281 2.78289 3.73149 2.78289 3.46098C2.78289 3.20687 2.88126 3.00194 3.07799 2.84619C3.28292 2.68225 3.56163 2.60027 3.91411 2.60027C4.66825 2.60027 5.21747 2.96915 5.56175 3.7069L6.98806 2.88308C6.69296 2.27648 6.27901 1.80514 5.74619 1.46906C5.22156 1.12478 4.61087 0.952634 3.91411 0.952634C3.13537 0.952634 2.4673 1.18625 1.90989 1.6535C1.36068 2.11254 1.08607 2.73143 1.08607 3.51016C1.08607 3.90363 1.15575 4.24791 1.2951 4.54301C1.43445 4.83811 1.63528 5.08403 1.8976 5.28076C2.1681 5.4693 2.43451 5.62095 2.69682 5.73571C2.96733 5.85047 3.29522 5.96523 3.68049 6.07999C4.37725 6.27672 4.86089 6.46116 5.1314 6.6333C5.4019 6.79725 5.53716 7.03087 5.53716 7.33416C5.53716 7.59647 5.42649 7.8137 5.20517 7.98584C4.98385 8.15798 4.63546 8.24405 4.16003 8.24405C3.17636 8.24405 2.51648 7.8055 2.1804 6.9284L0.729492 7.77681C0.967211 8.43259 1.37707 8.95311 1.95907 9.33838Z" fill="#1F1C46"/>
<path d="M13.3707 4.08807C12.9363 3.63722 12.3829 3.4118 11.7108 3.4118C10.8747 3.4118 10.264 3.6987 9.8787 4.27251V1.12478H8.29254V9.73185H9.8787V6.41198C9.8787 5.90375 10.0017 5.52258 10.2476 5.26847C10.4935 5.01435 10.8214 4.8873 11.2312 4.8873C11.6001 4.8873 11.8952 4.99796 12.1165 5.21928C12.3379 5.43241 12.4485 5.74391 12.4485 6.15377V9.73185H15.0713C13.8077 9.28209 12.9031 8.07544 12.9031 6.65752C12.9031 5.8409 13.2032 5.09435 13.6991 4.52211C13.6081 4.36305 13.4986 4.21837 13.3707 4.08807Z" fill="#1F1C46"/>
<path d="M26.24 3.58095H27.9245L25.9695 9.72886H24.4571L23.3259 6.00323L22.1946 9.72886H20.6823L18.7272 3.58095H20.4117L21.4569 7.35577L22.5758 3.58095H24.0759L25.1948 7.36807L26.24 3.58095Z" fill="#1F1C46"/>
<path fill-rule="evenodd" clip-rule="evenodd" d="M33.9773 7.30659C34.1905 8.07713 34.7684 8.46239 35.711 8.46239C36.3176 8.46239 36.7767 8.25746 37.0882 7.8476L38.3669 8.58535C37.7604 9.46245 36.8669 9.90101 35.6865 9.90101C34.67 9.90101 33.8544 9.59361 33.2396 8.97882C32.6248 8.36403 32.3174 7.58939 32.3174 6.65491C32.3174 5.72862 32.6207 4.95809 33.2273 4.34329C33.8339 3.72031 34.6126 3.40881 35.5635 3.40881C36.4652 3.40881 37.207 3.72031 37.789 4.34329C38.3792 4.96628 38.6743 5.73682 38.6743 6.65491C38.6743 6.85984 38.6538 7.07707 38.6129 7.30659H33.9773ZM33.9527 6.07701H37.0882C36.998 5.65895 36.8095 5.34745 36.5226 5.14252C36.2439 4.93759 35.9242 4.83513 35.5635 4.83513C35.1372 4.83513 34.7848 4.94579 34.5061 5.16711C34.2274 5.38024 34.0429 5.68354 33.9527 6.07701Z" fill="#1F1C46"/>
<path d="M42.1189 3.7531C41.7828 3.94983 41.541 4.24493 41.3934 4.63839V3.58095H39.8073V9.72886H41.3934V6.79016C41.3934 6.19996 41.5819 5.77781 41.959 5.52369C42.3443 5.26958 42.7787 5.17121 43.2624 5.22859V3.458C42.8443 3.458 42.4631 3.55636 42.1189 3.7531Z" fill="#1F1C46"/>
<path fill-rule="evenodd" clip-rule="evenodd" d="M50.8349 4.30641L52.4211 3.17019V9.72886H50.8349V9.00341C50.3595 9.60181 49.6914 9.90101 48.8307 9.90101C48.011 9.90101 47.306 9.58951 46.7158 8.96652C46.1338 8.33534 45.8428 7.5648 45.8428 6.65491C45.8428 5.74502 46.1338 4.97858 46.7158 4.35559C47.306 3.72441 48.011 3.40881 48.8307 3.40881C49.6914 3.40881 50.3595 3.70801 50.8349 4.30641ZM47.9085 7.90908C48.2282 8.22877 48.634 8.38862 49.1258 8.38862C49.6176 8.38862 50.0234 8.22877 50.3431 7.90908C50.6709 7.58119 50.8349 7.16314 50.8349 6.65491C50.8349 6.14668 50.6709 5.73272 50.3431 5.41303C50.0234 5.08514 49.6176 4.9212 49.1258 4.9212C48.634 4.9212 48.2282 5.08514 47.9085 5.41303C47.5888 5.73272 47.429 6.14668 47.429 6.65491C47.429 7.16314 47.5888 7.58119 47.9085 7.90908Z" fill="#6D67E4"/>
<path d="M53.885 4.4401V9.72886H55.4712V3.30156L53.885 4.4401Z" fill="#6D67E4"/>
<path d="M43.263 9.7387L45.3211 8.27174V9.7387H43.263Z" fill="#6D67E4"/>
<path d="M55.4712 0.811523L53.885 1.95007V3.41703L55.4712 2.27849V0.811523Z" fill="#6D67E4"/>
</svg>
