<svg width="180" height="180" viewBox="0 0 180 180" fill="none" xmlns="http://www.w3.org/2000/svg">
<path d="M0 81.7761C0 36.6125 36.6124 0 81.7761 0H98.1313C143.295 0 179.907 36.6124 179.907 81.7761V98.1313C179.907 143.295 143.295 179.907 98.1313 179.907H12.4074C5.555 179.907 0 174.352 0 167.5V81.7761Z" fill="#6D67E4"/>
<path d="M140.968 110.987C144.352 98.9137 146.769 73.861 129.366 70.2389C124.29 57.4114 116.314 50.6193 103.262 52.1285C88.7602 49.8655 67.0067 54.3925 58.3054 64.2022C56.9497 64.6055 55.4388 64.4165 54.0214 64.2392C50.1322 63.7527 46.9469 63.3543 49.6041 75.5212C45.9788 80.8041 47.429 83.822 48.1539 84.5764C43.6258 89.9628 44.8691 96.5499 47.2492 109.16C47.5369 110.685 47.8412 112.297 48.1539 114.006C48.163 114.014 48.1722 114.023 48.1815 114.032C48.2082 114.788 48.2545 115.54 48.3201 116.286C43.3745 116.564 39.4531 120.505 39.4531 125.325C39.4531 130.327 43.6735 134.381 48.8795 134.381C50.5512 134.381 52.1212 133.963 53.4825 133.23C61.2554 147.375 76.7345 157.019 94.5613 157.019C113.137 157.019 129.163 146.548 136.578 131.424C138.052 132.34 139.808 132.871 141.693 132.871C146.899 132.871 151.12 128.817 151.12 123.816C151.12 118.815 146.899 114.761 141.693 114.761C141.429 114.761 141.167 114.772 140.908 114.792C140.948 114.032 140.968 113.267 140.968 112.497C140.968 111.993 140.96 111.491 140.942 110.991C140.951 110.99 140.959 110.988 140.968 110.987Z" fill="white"/>
<path d="M83.4531 124.556C88.1992 132.75 100.977 132.359 106.453 124.556" stroke="#6D67E4" stroke-width="3" stroke-linecap="round"/>
<path d="M97.248 65.649C101.169 61.7557 122.181 67.2382 132.196 70.4661L130.503 65.739C132.215 65.5704 136.64 64.0743 140.65 59.4382C144.66 54.8021 142.439 51.2416 140.828 50.0409C134.33 46.7386 118.513 39.188 107.236 35.4046C93.1388 30.6754 93.2796 31.0694 89.967 30.478C86.6544 29.8866 67.938 30.812 48.3567 34.2693C33.0447 39.7529 29.0878 39.8371 34.2161 50.4453C34.2161 50.4453 40.5394 63.6475 41.9331 64.5706C43.6753 65.7244 49.9079 67.0479 49.4355 69.4393C48.9631 71.8308 40.4481 80.2139 37.3685 83.9835C34.2889 87.7532 33.4545 91.6077 37.0985 89.4137C40.7424 87.2197 57.5143 82.1018 68.4583 81.7379C79.4023 81.374 92.3464 70.5157 97.248 65.649Z" fill="white"/>
</svg>
