<svg width="66" height="12" viewBox="0 0 66 12" fill="none" xmlns="http://www.w3.org/2000/svg">
<path d="M20.8672 7.12363C20.8672 8.32387 19.9067 9.29687 18.7218 9.29687C17.537 9.29687 16.5765 8.32387 16.5765 7.12363C16.5765 5.92338 17.537 4.95039 18.7218 4.95039C19.9067 4.95039 20.8672 5.92338 20.8672 7.12363Z" fill="white"/>
<path d="M36.1575 3.42326C36.1575 2.51158 36.6771 2.09495 37.7162 2.17337V0.349999C36.5693 0.281378 35.7066 0.516652 35.1282 1.05582C34.5498 1.59499 34.2607 2.38414 34.2607 3.42326V3.49678H33.2019V5.32016H34.2607V10.8491H36.1575V5.32016H37.7162V3.49678H36.1575V3.42326Z" fill="white"/>
<path d="M1.65552 10.3821C2.35154 10.833 3.2093 11.0585 4.22882 11.0585C5.33657 11.0585 6.23355 10.7791 6.91977 10.2204C7.61578 9.66158 7.96379 8.90674 7.96379 7.95585C7.96379 7.66176 7.92458 7.39217 7.84616 7.14709C7.77753 6.89221 7.68931 6.67655 7.58147 6.50009C7.48344 6.32364 7.3364 6.15208 7.14033 5.98543C6.94427 5.81878 6.76782 5.68644 6.61097 5.58841C6.46392 5.49038 6.24826 5.38744 5.96397 5.27961C5.68948 5.16197 5.46891 5.07865 5.30226 5.02963C5.14541 4.97081 4.91014 4.89239 4.59644 4.79436C3.8318 4.55908 3.31224 4.34342 3.03775 4.14736C2.77307 3.94149 2.64073 3.67681 2.64073 3.35331C2.64073 3.04941 2.75836 2.80434 2.99364 2.61808C3.23871 2.42202 3.57202 2.32399 3.99355 2.32399C4.89543 2.32399 5.55224 2.76512 5.96397 3.6474L7.6697 2.66219C7.31679 1.93676 6.82174 1.37309 6.18454 0.971162C5.55714 0.559433 4.82681 0.353569 3.99355 0.353569C3.06226 0.353569 2.26331 0.632957 1.5967 1.19173C0.939895 1.7407 0.611492 2.48083 0.611492 3.41213C0.611492 3.88267 0.694818 4.2944 0.86147 4.64731C1.02812 5.00022 1.2683 5.29432 1.582 5.52959C1.9055 5.75506 2.2241 5.93642 2.53779 6.07366C2.8613 6.2109 3.25342 6.34815 3.71416 6.48539C4.54742 6.72066 5.1258 6.94123 5.44931 7.14709C5.77281 7.34316 5.93456 7.62254 5.93456 7.98526C5.93456 8.29895 5.80222 8.55874 5.53753 8.7646C5.27285 8.97046 4.85622 9.0734 4.28764 9.0734C3.11127 9.0734 2.32213 8.54893 1.9202 7.5L0.185059 8.51462C0.469348 9.29887 0.959501 9.92136 1.65552 10.3821Z" fill="white"/>
<path d="M15.3027 4.10324C14.7832 3.56407 14.1215 3.29449 13.3176 3.29449C12.3177 3.29449 11.5874 3.6376 11.1266 4.32381V0.559433H9.22973V10.8527H11.1266V6.88241C11.1266 6.27462 11.2737 5.81878 11.5678 5.51488C11.8619 5.21099 12.254 5.05904 12.7441 5.05904C13.1853 5.05904 13.5382 5.19138 13.8029 5.45607C14.0675 5.71095 14.1999 6.08346 14.1999 6.57362V10.8527H17.3364C15.8253 10.3148 14.7436 8.87175 14.7436 7.17606C14.7436 6.19946 15.1024 5.30666 15.6954 4.62232C15.5866 4.4321 15.4557 4.25907 15.3027 4.10324Z" fill="white"/>
<path d="M30.6931 3.49678H32.7076L30.3696 10.8491H28.5609L27.2081 6.39359L25.8553 10.8491H24.0466L21.7086 3.49678H23.7231L24.973 8.0111L26.3111 3.49678H28.1051L29.4432 8.0258L30.6931 3.49678Z" fill="white"/>
<path fill-rule="evenodd" clip-rule="evenodd" d="M39.9462 7.95228C40.2011 8.87377 40.8922 9.33451 42.0196 9.33451C42.745 9.33451 43.294 9.08943 43.6665 8.59928L45.1958 9.48156C44.4704 10.5305 43.4018 11.0549 41.9902 11.0549C40.7746 11.0549 39.7992 10.6873 39.064 9.9521C38.3287 9.21687 37.9611 8.29048 37.9611 7.17293C37.9611 6.06519 38.3238 5.1437 39.0493 4.40847C39.7747 3.66344 40.706 3.29092 41.8431 3.29092C42.9215 3.29092 43.8087 3.66344 44.5047 4.40847C45.2105 5.1535 45.5634 6.07499 45.5634 7.17293C45.5634 7.41801 45.5389 7.67779 45.4899 7.95228H39.9462ZM39.9168 6.48182H43.6665C43.5587 5.98186 43.3332 5.60934 42.9901 5.36427C42.6568 5.11919 42.2745 4.99665 41.8431 4.99665C41.3334 4.99665 40.9118 5.12899 40.5785 5.39368C40.2452 5.64856 40.0247 6.01127 39.9168 6.48182Z" fill="white"/>
<path d="M49.6827 3.70265C49.2808 3.93792 48.9916 4.29083 48.8151 4.76138V3.49678H46.9183V10.8491H48.8151V7.33469C48.8151 6.62886 49.0406 6.12401 49.4916 5.82011C49.9523 5.51622 50.4719 5.39858 51.0502 5.4672V3.34974C50.5503 3.34974 50.0944 3.46737 49.6827 3.70265Z" fill="white"/>
<path fill-rule="evenodd" clip-rule="evenodd" d="M60.1062 4.36436L62.0031 3.00555V10.8491H60.1062V9.98151C59.5377 10.6971 58.7387 11.0549 57.7094 11.0549C56.7291 11.0549 55.886 10.6824 55.1802 9.9374C54.4842 9.18256 54.1362 8.26108 54.1362 7.17293C54.1362 6.08479 54.4842 5.16821 55.1802 4.42317C55.886 3.66834 56.7291 3.29092 57.7094 3.29092C58.7387 3.29092 59.5377 3.64873 60.1062 4.36436ZM56.6065 8.6728C56.9889 9.05512 57.4741 9.24628 58.0623 9.24628C58.6505 9.24628 59.1357 9.05512 59.5181 8.6728C59.9102 8.28068 60.1062 7.78073 60.1062 7.17293C60.1062 6.56514 59.9102 6.07009 59.5181 5.68777C59.1357 5.29565 58.6505 5.09959 58.0623 5.09959C57.4741 5.09959 56.9889 5.29565 56.6065 5.68777C56.2242 6.07009 56.0331 6.56514 56.0331 7.17293C56.0331 7.78073 56.2242 8.28068 56.6065 8.6728Z" fill="white"/>
<path d="M63.7539 4.52424V10.8491H65.6508V3.16266L63.7539 4.52424Z" fill="white"/>
<path d="M51.051 10.8609L53.5123 9.1065V10.8609H51.051Z" fill="white"/>
<path d="M65.6508 0.184814L63.7539 1.5464V3.30075L65.6508 1.93917V0.184814Z" fill="white"/>
</svg>
